<?xml version="1.0"?>
<!-- Created by MetaPost 2.00 on 2019.12.16:2300 -->
<svg version="1.1" xmlns="http://www.w3.org/2000/svg" xmlns:xlink="http://www.w3.org/1999/xlink" width="388.533127" height="627.176804" viewBox="0 0 388.533127 627.176804">
<!-- Original BoundingBox: -22.672913 -22.672913 365.860214 604.503891 -->
  <defs>
    <g transform="scale(0.009963,0.009963)" id="GLYPHcmmi10_120">
      <path style="fill-rule: evenodd;" d="M334.000000 -302.000000C340.000000 -328.000000,363.000000 -420.000000,433.000000 -420.000000C438.000000 -420.000000,462.000000 -420.000000,483.000000 -407.000000C455.000000 -402.000000,435.000000 -377.000000,435.000000 -353.000000C435.000000 -337.000000,446.000000 -318.000000,473.000000 -318.000000C495.000000 -318.000000,527.000000 -336.000000,527.000000 -376.000000C527.000000 -428.000000,468.000000 -442.000000,434.000000 -442.000000C376.000000 -442.000000,341.000000 -389.000000,329.000000 -366.000000C304.000000 -432.000000,250.000000 -442.000000,221.000000 -442.000000C117.000000 -442.000000,60.000000 -313.000000,60.000000 -288.000000C60.000000 -278.000000,70.000000 -278.000000,72.000000 -278.000000C80.000000 -278.000000,83.000000 -280.000000,85.000000 -289.000000C119.000000 -395.000000,185.000000 -420.000000,219.000000 -420.000000C238.000000 -420.000000,273.000000 -411.000000,273.000000 -353.000000C273.000000 -322.000000,256.000000 -255.000000,219.000000 -115.000000C203.000000 -53.000000,168.000000 -11.000000,124.000000 -11.000000C118.000000 -11.000000,95.000000 -11.000000,74.000000 -24.000000C99.000000 -29.000000,121.000000 -50.000000,121.000000 -78.000000C121.000000 -105.000000,99.000000 -113.000000,84.000000 -113.000000C54.000000 -113.000000,29.000000 -87.000000,29.000000 -55.000000C29.000000 -9.000000,79.000000 11.000000,123.000000 11.000000C189.000000 11.000000,225.000000 -59.000000,228.000000 -65.000000C240.000000 -28.000000,276.000000 11.000000,336.000000 11.000000C439.000000 11.000000,496.000000 -118.000000,496.000000 -143.000000C496.000000 -153.000000,487.000000 -153.000000,484.000000 -153.000000C475.000000 -153.000000,473.000000 -149.000000,471.000000 -142.000000C438.000000 -35.000000,370.000000 -11.000000,338.000000 -11.000000C299.000000 -11.000000,283.000000 -43.000000,283.000000 -77.000000C283.000000 -99.000000,289.000000 -121.000000,300.000000 -165.000000"></path>
    </g>
    <g transform="scale(0.009963,0.009963)" id="GLYPHcmmi10_121">
      <path style="fill-rule: evenodd;" d="M486.000000 -381.000000C490.000000 -395.000000,490.000000 -397.000000,490.000000 -404.000000C490.000000 -422.000000,476.000000 -431.000000,461.000000 -431.000000C451.000000 -431.000000,435.000000 -425.000000,426.000000 -410.000000C424.000000 -405.000000,416.000000 -374.000000,412.000000 -356.000000C405.000000 -330.000000,398.000000 -303.000000,392.000000 -276.000000L347.000000 -96.000000C343.000000 -81.000000,300.000000 -11.000000,234.000000 -11.000000C183.000000 -11.000000,172.000000 -55.000000,172.000000 -92.000000C172.000000 -138.000000,189.000000 -200.000000,223.000000 -288.000000C239.000000 -329.000000,243.000000 -340.000000,243.000000 -360.000000C243.000000 -405.000000,211.000000 -442.000000,161.000000 -442.000000C66.000000 -442.000000,29.000000 -297.000000,29.000000 -288.000000C29.000000 -278.000000,39.000000 -278.000000,41.000000 -278.000000C51.000000 -278.000000,52.000000 -280.000000,57.000000 -296.000000C84.000000 -390.000000,124.000000 -420.000000,158.000000 -420.000000C166.000000 -420.000000,183.000000 -420.000000,183.000000 -388.000000C183.000000 -363.000000,173.000000 -337.000000,166.000000 -318.000000C126.000000 -212.000000,108.000000 -155.000000,108.000000 -108.000000C108.000000 -19.000000,171.000000 11.000000,230.000000 11.000000C269.000000 11.000000,303.000000 -6.000000,331.000000 -34.000000C318.000000 18.000000,306.000000 67.000000,266.000000 120.000000C240.000000 154.000000,202.000000 183.000000,156.000000 183.000000C142.000000 183.000000,97.000000 180.000000,80.000000 141.000000C96.000000 141.000000,109.000000 141.000000,123.000000 129.000000C133.000000 120.000000,143.000000 107.000000,143.000000 88.000000C143.000000 57.000000,116.000000 53.000000,106.000000 53.000000C83.000000 53.000000,50.000000 69.000000,50.000000 118.000000C50.000000 168.000000,94.000000 205.000000,156.000000 205.000000C259.000000 205.000000,362.000000 114.000000,390.000000 1.000000"></path>
    </g>
  </defs>
  <path d="M0.740158 604.000000L362.157410 604.000000" style="stroke:rgb(69.999695%,69.999695%,69.999695%); stroke-width: 0.500000;stroke-linecap: round;stroke-dasharray: 1.500000 1.500000 ;stroke-linejoin: round;stroke-miterlimit: 10.000000;fill: none;"></path>
  <path d="M0.740158 575.653549L362.157410 575.653549" style="stroke:rgb(69.999695%,69.999695%,69.999695%); stroke-width: 0.500000;stroke-linecap: round;stroke-dasharray: 1.500000 1.500000 ;stroke-linejoin: round;stroke-miterlimit: 10.000000;fill: none;"></path>
  <path d="M0.740158 547.307098L362.157410 547.307098" style="stroke:rgb(69.999695%,69.999695%,69.999695%); stroke-width: 0.500000;stroke-linecap: round;stroke-dasharray: 1.500000 1.500000 ;stroke-linejoin: round;stroke-miterlimit: 10.000000;fill: none;"></path>
  <path d="M0.740158 518.960648L362.157410 518.960648" style="stroke:rgb(69.999695%,69.999695%,69.999695%); stroke-width: 0.500000;stroke-linecap: round;stroke-dasharray: 1.500000 1.500000 ;stroke-linejoin: round;stroke-miterlimit: 10.000000;fill: none;"></path>
  <path d="M0.740158 490.614197L362.157410 490.614197" style="stroke:rgb(69.999695%,69.999695%,69.999695%); stroke-width: 0.500000;stroke-linecap: round;stroke-dasharray: 1.500000 1.500000 ;stroke-linejoin: round;stroke-miterlimit: 10.000000;fill: none;"></path>
  <path d="M0.740158 462.267746L362.157410 462.267746" style="stroke:rgb(69.999695%,69.999695%,69.999695%); stroke-width: 0.500000;stroke-linecap: round;stroke-dasharray: 1.500000 1.500000 ;stroke-linejoin: round;stroke-miterlimit: 10.000000;fill: none;"></path>
  <path d="M0.740158 433.921295L362.157410 433.921295" style="stroke:rgb(69.999695%,69.999695%,69.999695%); stroke-width: 0.500000;stroke-linecap: round;stroke-dasharray: 1.500000 1.500000 ;stroke-linejoin: round;stroke-miterlimit: 10.000000;fill: none;"></path>
  <path d="M0.740158 405.574844L362.157410 405.574844" style="stroke:rgb(69.999695%,69.999695%,69.999695%); stroke-width: 0.500000;stroke-linecap: round;stroke-dasharray: 1.500000 1.500000 ;stroke-linejoin: round;stroke-miterlimit: 10.000000;fill: none;"></path>
  <path d="M0.740158 377.228394L362.157410 377.228394" style="stroke:rgb(69.999695%,69.999695%,69.999695%); stroke-width: 0.500000;stroke-linecap: round;stroke-dasharray: 1.500000 1.500000 ;stroke-linejoin: round;stroke-miterlimit: 10.000000;fill: none;"></path>
  <path d="M0.740158 348.881943L362.157410 348.881943" style="stroke:rgb(69.999695%,69.999695%,69.999695%); stroke-width: 0.500000;stroke-linecap: round;stroke-dasharray: 1.500000 1.500000 ;stroke-linejoin: round;stroke-miterlimit: 10.000000;fill: none;"></path>
  <path d="M0.740158 320.535492L362.157410 320.535492" style="stroke:rgb(69.999695%,69.999695%,69.999695%); stroke-width: 0.500000;stroke-linecap: round;stroke-dasharray: 1.500000 1.500000 ;stroke-linejoin: round;stroke-miterlimit: 10.000000;fill: none;"></path>
  <path d="M0.740158 292.189041L362.157410 292.189041" style="stroke:rgb(69.999695%,69.999695%,69.999695%); stroke-width: 0.500000;stroke-linecap: round;stroke-dasharray: 1.500000 1.500000 ;stroke-linejoin: round;stroke-miterlimit: 10.000000;fill: none;"></path>
  <path d="M0.740158 263.842590L362.157410 263.842590" style="stroke:rgb(69.999695%,69.999695%,69.999695%); stroke-width: 0.500000;stroke-linecap: round;stroke-dasharray: 1.500000 1.500000 ;stroke-linejoin: round;stroke-miterlimit: 10.000000;fill: none;"></path>
  <path d="M0.740158 235.496140L362.157410 235.496140" style="stroke:rgb(69.999695%,69.999695%,69.999695%); stroke-width: 0.500000;stroke-linecap: round;stroke-dasharray: 1.500000 1.500000 ;stroke-linejoin: round;stroke-miterlimit: 10.000000;fill: none;"></path>
  <path d="M0.740158 207.149689L362.157410 207.149689" style="stroke:rgb(69.999695%,69.999695%,69.999695%); stroke-width: 0.500000;stroke-linecap: round;stroke-dasharray: 1.500000 1.500000 ;stroke-linejoin: round;stroke-miterlimit: 10.000000;fill: none;"></path>
  <path d="M0.740158 178.803238L362.157410 178.803238" style="stroke:rgb(69.999695%,69.999695%,69.999695%); stroke-width: 0.500000;stroke-linecap: round;stroke-dasharray: 1.500000 1.500000 ;stroke-linejoin: round;stroke-miterlimit: 10.000000;fill: none;"></path>
  <path d="M0.740158 150.456787L362.157410 150.456787" style="stroke:rgb(69.999695%,69.999695%,69.999695%); stroke-width: 0.500000;stroke-linecap: round;stroke-dasharray: 1.500000 1.500000 ;stroke-linejoin: round;stroke-miterlimit: 10.000000;fill: none;"></path>
  <path d="M0.740158 122.110336L362.157410 122.110336" style="stroke:rgb(69.999695%,69.999695%,69.999695%); stroke-width: 0.500000;stroke-linecap: round;stroke-dasharray: 1.500000 1.500000 ;stroke-linejoin: round;stroke-miterlimit: 10.000000;fill: none;"></path>
  <path d="M0.740158 93.763885L362.157410 93.763885" style="stroke:rgb(69.999695%,69.999695%,69.999695%); stroke-width: 0.500000;stroke-linecap: round;stroke-dasharray: 1.500000 1.500000 ;stroke-linejoin: round;stroke-miterlimit: 10.000000;fill: none;"></path>
  <path d="M0.740158 65.417435L362.157410 65.417435" style="stroke:rgb(69.999695%,69.999695%,69.999695%); stroke-width: 0.500000;stroke-linecap: round;stroke-dasharray: 1.500000 1.500000 ;stroke-linejoin: round;stroke-miterlimit: 10.000000;fill: none;"></path>
  <path d="M0.740158 37.070984L362.157410 37.070984" style="stroke:rgb(69.999695%,69.999695%,69.999695%); stroke-width: 0.500000;stroke-linecap: round;stroke-dasharray: 1.500000 1.500000 ;stroke-linejoin: round;stroke-miterlimit: 10.000000;fill: none;"></path>
  <path d="M22.000000 625.259842L22.000000 37.070984" style="stroke:rgb(69.999695%,69.999695%,69.999695%); stroke-width: 0.500000;stroke-linecap: round;stroke-dasharray: 1.500000 1.500000 ;stroke-linejoin: round;stroke-miterlimit: 10.000000;fill: none;"></path>
  <path d="M50.346451 625.259842L50.346451 37.070984" style="stroke:rgb(69.999695%,69.999695%,69.999695%); stroke-width: 0.500000;stroke-linecap: round;stroke-dasharray: 1.500000 1.500000 ;stroke-linejoin: round;stroke-miterlimit: 10.000000;fill: none;"></path>
  <path d="M78.692902 625.259842L78.692902 37.070984" style="stroke:rgb(69.999695%,69.999695%,69.999695%); stroke-width: 0.500000;stroke-linecap: round;stroke-dasharray: 1.500000 1.500000 ;stroke-linejoin: round;stroke-miterlimit: 10.000000;fill: none;"></path>
  <path d="M107.039352 625.259842L107.039352 37.070984" style="stroke:rgb(69.999695%,69.999695%,69.999695%); stroke-width: 0.500000;stroke-linecap: round;stroke-dasharray: 1.500000 1.500000 ;stroke-linejoin: round;stroke-miterlimit: 10.000000;fill: none;"></path>
  <path d="M135.385803 625.259842L135.385803 37.070984" style="stroke:rgb(69.999695%,69.999695%,69.999695%); stroke-width: 0.500000;stroke-linecap: round;stroke-dasharray: 1.500000 1.500000 ;stroke-linejoin: round;stroke-miterlimit: 10.000000;fill: none;"></path>
  <path d="M163.732254 625.259842L163.732254 37.070984" style="stroke:rgb(69.999695%,69.999695%,69.999695%); stroke-width: 0.500000;stroke-linecap: round;stroke-dasharray: 1.500000 1.500000 ;stroke-linejoin: round;stroke-miterlimit: 10.000000;fill: none;"></path>
  <path d="M192.078705 625.259842L192.078705 37.070984" style="stroke:rgb(69.999695%,69.999695%,69.999695%); stroke-width: 0.500000;stroke-linecap: round;stroke-dasharray: 1.500000 1.500000 ;stroke-linejoin: round;stroke-miterlimit: 10.000000;fill: none;"></path>
  <path d="M220.425156 625.259842L220.425156 37.070984" style="stroke:rgb(69.999695%,69.999695%,69.999695%); stroke-width: 0.500000;stroke-linecap: round;stroke-dasharray: 1.500000 1.500000 ;stroke-linejoin: round;stroke-miterlimit: 10.000000;fill: none;"></path>
  <path d="M248.771606 625.259842L248.771606 37.070984" style="stroke:rgb(69.999695%,69.999695%,69.999695%); stroke-width: 0.500000;stroke-linecap: round;stroke-dasharray: 1.500000 1.500000 ;stroke-linejoin: round;stroke-miterlimit: 10.000000;fill: none;"></path>
  <path d="M277.118057 625.259842L277.118057 37.070984" style="stroke:rgb(69.999695%,69.999695%,69.999695%); stroke-width: 0.500000;stroke-linecap: round;stroke-dasharray: 1.500000 1.500000 ;stroke-linejoin: round;stroke-miterlimit: 10.000000;fill: none;"></path>
  <path d="M305.464508 625.259842L305.464508 37.070984" style="stroke:rgb(69.999695%,69.999695%,69.999695%); stroke-width: 0.500000;stroke-linecap: round;stroke-dasharray: 1.500000 1.500000 ;stroke-linejoin: round;stroke-miterlimit: 10.000000;fill: none;"></path>
  <path d="M333.810959 625.259842L333.810959 37.070984" style="stroke:rgb(69.999695%,69.999695%,69.999695%); stroke-width: 0.500000;stroke-linecap: round;stroke-dasharray: 1.500000 1.500000 ;stroke-linejoin: round;stroke-miterlimit: 10.000000;fill: none;"></path>
  <path d="M362.157410 625.259842L362.157410 37.070984" style="stroke:rgb(69.999695%,69.999695%,69.999695%); stroke-width: 0.500000;stroke-linecap: round;stroke-dasharray: 1.500000 1.500000 ;stroke-linejoin: round;stroke-miterlimit: 10.000000;fill: none;"></path>
  <path d="M-0.322906 604.000000L379.166321 604.000000" style="stroke:rgb(0.000000%,0.000000%,0.000000%); stroke-width: 0.699997;stroke-linecap: round;stroke-linejoin: round;stroke-miterlimit: 10.000000;fill: none;"></path>
  <path d="M375.469650 605.531250L379.166321 604.000000L375.469650 602.468750Z" style="stroke:rgb(0.000000%,0.000000%,0.000000%); stroke-width: 0.699997;fill: rgb(0.000000%,0.000000%,0.000000%);"></path>
  <path d="M22.000000 626.322906L22.000000 8.722809" style="stroke:rgb(0.000000%,0.000000%,0.000000%); stroke-width: 0.699997;stroke-linecap: round;stroke-linejoin: round;stroke-miterlimit: 10.000000;fill: none;"></path>
  <path d="M23.529129 12.414352L22.000000 8.722809L20.470871 12.414352Z" style="stroke:rgb(0.000000%,0.000000%,0.000000%); stroke-width: 0.699997;fill: rgb(0.000000%,0.000000%,0.000000%);"></path>
  <path d="M22.000000 604.000000L333.810959 99.476776" style="stroke:rgb(0.000000%,0.000000%,0.000000%); stroke-width: 0.500000;stroke-linecap: round;stroke-linejoin: round;stroke-miterlimit: 10.000000;fill: none;"></path>
  <g transform="translate(382.166321 606.144760)" style="fill: rgb(0.000000%,0.000000%,0.000000%);">
    <use xlink:href="#GLYPHcmmi10_120"></use>
  </g>
  <g transform="translate(19.379044 3.785614)" style="fill: rgb(0.000000%,0.000000%,0.000000%);">
    <use xlink:href="#GLYPHcmmi10_121"></use>
  </g>
  <path d="M79.685028 575.653549C79.685028 575.390411,79.580475 575.138077,79.394424 574.952026C79.208374 574.765976,78.956039 574.661423,78.692902 574.661423C78.429764 574.661423,78.177429 574.765976,77.991379 574.952026C77.805328 575.138077,77.700775 575.390411,77.700775 575.653549C77.700775 575.916687,77.805328 576.169022,77.991379 576.355072C78.177429 576.541122,78.429764 576.645676,78.692902 576.645676C78.956039 576.645676,79.208374 576.541122,79.394424 576.355072C79.580475 576.169022,79.685028 575.916687,79.685028 575.653549Z" style="fill: rgb(100.000000%,100.000000%,100.000000%);stroke: none;"></path>
  <path d="M79.685028 575.653549C79.685028 575.390411,79.580475 575.138077,79.394424 574.952026C79.208374 574.765976,78.956039 574.661423,78.692902 574.661423C78.429764 574.661423,78.177429 574.765976,77.991379 574.952026C77.805328 575.138077,77.700775 575.390411,77.700775 575.653549C77.700775 575.916687,77.805328 576.169022,77.991379 576.355072C78.177429 576.541122,78.429764 576.645676,78.692902 576.645676C78.956039 576.645676,79.208374 576.541122,79.394424 576.355072C79.580475 576.169022,79.685028 575.916687,79.685028 575.653549Z" style="stroke:rgb(0.000000%,0.000000%,0.000000%); stroke-width: 0.500000;stroke-linecap: round;stroke-linejoin: round;stroke-miterlimit: 10.000000;fill: none;"></path>
  <path d="M78.692902 575.653549L50.346451 518.960648" style="stroke:rgb(100.000000%,0.000000%,0.000000%); stroke-width: 0.500000;stroke-linecap: round;stroke-linejoin: round;stroke-miterlimit: 10.000000;fill: none;"></path>
  <path d="M51.338577 518.960648C51.338577 518.697510,51.234024 518.445175,51.047974 518.259125C50.861923 518.073074,50.609589 517.968521,50.346451 517.968521C50.083313 517.968521,49.830978 518.073074,49.644928 518.259125C49.458878 518.445175,49.354324 518.697510,49.354324 518.960648C49.354324 519.223785,49.458878 519.476120,49.644928 519.662170C49.830978 519.848221,50.083313 519.952774,50.346451 519.952774C50.609589 519.952774,50.861923 519.848221,51.047974 519.662170C51.234024 519.476120,51.338577 519.223785,51.338577 518.960648Z" style="fill: rgb(100.000000%,100.000000%,100.000000%);stroke: none;"></path>
  <path d="M51.338577 518.960648C51.338577 518.697510,51.234024 518.445175,51.047974 518.259125C50.861923 518.073074,50.609589 517.968521,50.346451 517.968521C50.083313 517.968521,49.830978 518.073074,49.644928 518.259125C49.458878 518.445175,49.354324 518.697510,49.354324 518.960648C49.354324 519.223785,49.458878 519.476120,49.644928 519.662170C49.830978 519.848221,50.083313 519.952774,50.346451 519.952774C50.609589 519.952774,50.861923 519.848221,51.047974 519.662170C51.234024 519.476120,51.338577 519.223785,51.338577 518.960648Z" style="stroke:rgb(0.000000%,0.000000%,0.000000%); stroke-width: 0.500000;stroke-linecap: round;stroke-linejoin: round;stroke-miterlimit: 10.000000;fill: none;"></path>
  <path d="M50.346451 518.960648L107.039352 490.614197" style="stroke:rgb(100.000000%,0.000000%,0.000000%); stroke-width: 0.500000;stroke-linecap: round;stroke-linejoin: round;stroke-miterlimit: 10.000000;fill: none;"></path>
  <path d="M108.031479 490.614197C108.031479 490.351059,107.926926 490.098724,107.740875 489.912674C107.554825 489.726624,107.302490 489.622070,107.039352 489.622070C106.776215 489.622070,106.523880 489.726624,106.337830 489.912674C106.151779 490.098724,106.047226 490.351059,106.047226 490.614197C106.047226 490.877335,106.151779 491.129669,106.337830 491.315720C106.523880 491.501770,106.776215 491.606323,107.039352 491.606323C107.302490 491.606323,107.554825 491.501770,107.740875 491.315720C107.926926 491.129669,108.031479 490.877335,108.031479 490.614197Z" style="fill: rgb(100.000000%,100.000000%,100.000000%);stroke: none;"></path>
  <path d="M108.031479 490.614197C108.031479 490.351059,107.926926 490.098724,107.740875 489.912674C107.554825 489.726624,107.302490 489.622070,107.039352 489.622070C106.776215 489.622070,106.523880 489.726624,106.337830 489.912674C106.151779 490.098724,106.047226 490.351059,106.047226 490.614197C106.047226 490.877335,106.151779 491.129669,106.337830 491.315720C106.523880 491.501770,106.776215 491.606323,107.039352 491.606323C107.302490 491.606323,107.554825 491.501770,107.740875 491.315720C107.926926 491.129669,108.031479 490.877335,108.031479 490.614197Z" style="stroke:rgb(0.000000%,0.000000%,0.000000%); stroke-width: 0.500000;stroke-linecap: round;stroke-linejoin: round;stroke-miterlimit: 10.000000;fill: none;"></path>
  <path d="M107.039352 490.614197L135.385803 405.574844" style="stroke:rgb(100.000000%,0.000000%,0.000000%); stroke-width: 0.500000;stroke-linecap: round;stroke-linejoin: round;stroke-miterlimit: 10.000000;fill: none;"></path>
  <path d="M136.377930 405.574844C136.377930 405.311707,136.273376 405.059372,136.087326 404.873322C135.901276 404.687271,135.648941 404.582718,135.385803 404.582718C135.122665 404.582718,134.870331 404.687271,134.684280 404.873322C134.498230 405.059372,134.393677 405.311707,134.393677 405.574844C134.393677 405.837982,134.498230 406.090317,134.684280 406.276367C134.870331 406.462418,135.122665 406.566971,135.385803 406.566971C135.648941 406.566971,135.901276 406.462418,136.087326 406.276367C136.273376 406.090317,136.377930 405.837982,136.377930 405.574844Z" style="fill: rgb(100.000000%,100.000000%,100.000000%);stroke: none;"></path>
  <path d="M136.377930 405.574844C136.377930 405.311707,136.273376 405.059372,136.087326 404.873322C135.901276 404.687271,135.648941 404.582718,135.385803 404.582718C135.122665 404.582718,134.870331 404.687271,134.684280 404.873322C134.498230 405.059372,134.393677 405.311707,134.393677 405.574844C134.393677 405.837982,134.498230 406.090317,134.684280 406.276367C134.870331 406.462418,135.122665 406.566971,135.385803 406.566971C135.648941 406.566971,135.901276 406.462418,136.087326 406.276367C136.273376 406.090317,136.377930 405.837982,136.377930 405.574844Z" style="stroke:rgb(0.000000%,0.000000%,0.000000%); stroke-width: 0.500000;stroke-linecap: round;stroke-linejoin: round;stroke-miterlimit: 10.000000;fill: none;"></path>
  <path d="M135.385803 405.574844L220.425156 292.189041" style="stroke:rgb(100.000000%,0.000000%,0.000000%); stroke-width: 0.500000;stroke-linecap: round;stroke-linejoin: round;stroke-miterlimit: 10.000000;fill: none;"></path>
  <path d="M221.417282 292.189041C221.417282 291.925903,221.312729 291.673569,221.126678 291.487518C220.940628 291.301468,220.688293 291.196915,220.425156 291.196915C220.162018 291.196915,219.909683 291.301468,219.723633 291.487518C219.537582 291.673569,219.433029 291.925903,219.433029 292.189041C219.433029 292.452179,219.537582 292.704514,219.723633 292.890564C219.909683 293.076614,220.162018 293.181168,220.425156 293.181168C220.688293 293.181168,220.940628 293.076614,221.126678 292.890564C221.312729 292.704514,221.417282 292.452179,221.417282 292.189041Z" style="fill: rgb(100.000000%,100.000000%,100.000000%);stroke: none;"></path>
  <path d="M221.417282 292.189041C221.417282 291.925903,221.312729 291.673569,221.126678 291.487518C220.940628 291.301468,220.688293 291.196915,220.425156 291.196915C220.162018 291.196915,219.909683 291.301468,219.723633 291.487518C219.537582 291.673569,219.433029 291.925903,219.433029 292.189041C219.433029 292.452179,219.537582 292.704514,219.723633 292.890564C219.909683 293.076614,220.162018 293.181168,220.425156 293.181168C220.688293 293.181168,220.940628 293.076614,221.126678 292.890564C221.312729 292.704514,221.417282 292.452179,221.417282 292.189041Z" style="stroke:rgb(0.000000%,0.000000%,0.000000%); stroke-width: 0.500000;stroke-linecap: round;stroke-linejoin: round;stroke-miterlimit: 10.000000;fill: none;"></path>
  <path d="M220.425156 292.189041L333.810959 93.763885" style="stroke:rgb(100.000000%,0.000000%,0.000000%); stroke-width: 0.500000;stroke-linecap: round;stroke-linejoin: round;stroke-miterlimit: 10.000000;fill: none;"></path>
  <path d="M334.803085 93.763885C334.803085 93.500748,334.698532 93.248413,334.512482 93.062363C334.326431 92.876312,334.074097 92.771759,333.810959 92.771759C333.547821 92.771759,333.295486 92.876312,333.109436 93.062363C332.923386 93.248413,332.818832 93.500748,332.818832 93.763885C332.818832 94.027023,332.923386 94.279358,333.109436 94.465408C333.295486 94.651459,333.547821 94.756012,333.810959 94.756012C334.074097 94.756012,334.326431 94.651459,334.512482 94.465408C334.698532 94.279358,334.803085 94.027023,334.803085 93.763885Z" style="fill: rgb(100.000000%,100.000000%,100.000000%);stroke: none;"></path>
  <path d="M334.803085 93.763885C334.803085 93.500748,334.698532 93.248413,334.512482 93.062363C334.326431 92.876312,334.074097 92.771759,333.810959 92.771759C333.547821 92.771759,333.295486 92.876312,333.109436 93.062363C332.923386 93.248413,332.818832 93.500748,332.818832 93.763885C332.818832 94.027023,332.923386 94.279358,333.109436 94.465408C333.295486 94.651459,333.547821 94.756012,333.810959 94.756012C334.074097 94.756012,334.326431 94.651459,334.512482 94.465408C334.698532 94.279358,334.803085 94.027023,334.803085 93.763885Z" style="stroke:rgb(0.000000%,0.000000%,0.000000%); stroke-width: 0.500000;stroke-linecap: round;stroke-linejoin: round;stroke-miterlimit: 10.000000;fill: none;"></path>
</svg>
