<?xml version="1.0"?>
<!-- Created by MetaPost 2.000 on 2018.06.03:1856 -->
<svg version="1.1" xmlns="http://www.w3.org/2000/svg" xmlns:xlink="http://www.w3.org/1999/xlink" width="286.298706" height="286.298706" viewBox="0 0 286.298706 286.298706">
<!-- Original BoundingBox: -143.149353 -143.149353 143.149353 143.149353 -->
  <path d="M284.732025 143.000000C284.732025 105.408661,269.796707 69.361465,243.217621 42.782379C216.638535 16.203293,180.591339 1.267975,143.000000 1.267975C105.408661 1.267975,69.361465 16.203293,42.782379 42.782379C16.203293 69.361465,1.267975 105.408661,1.267975 143.000000C1.267975 180.591339,16.203293 216.638535,42.782379 243.217621C69.361465 269.796707,105.408661 284.732025,143.000000 284.732025C180.591339 284.732025,216.638535 269.796707,243.217621 243.217621C269.796707 216.638535,284.732025 180.591339,284.732025 143.000000Z" style="stroke:rgb(0.000000%,0.000000%,0.000000%); stroke-width: 0.500000;stroke-linecap: round;stroke-linejoin: round;stroke-miterlimit: 10.000000;fill: none;"></path>
  <path d="M1.267975 143.000000L143.001740 1.267975" style="stroke:rgb(0.000000%,0.000000%,0.000000%); stroke-width: 0.500000;stroke-linecap: round;stroke-linejoin: round;stroke-miterlimit: 10.000000;fill: none;"></path>
  <path d="M144.419067 1.267975C144.419067 0.892059,144.269699 0.531586,144.003922 0.265793C143.738129 0.000015,143.377655 -0.149353,143.001740 -0.149353C142.625824 -0.149353,142.265350 0.000015,141.999557 0.265793C141.733780 0.531586,141.584412 0.892059,141.584412 1.267975C141.584412 1.643890,141.733780 2.004364,141.999557 2.270157C142.265350 2.535934,142.625824 2.685303,143.001740 2.685303C143.377655 2.685303,143.738129 2.535934,144.003922 2.270157C144.269699 2.004364,144.419067 1.643890,144.419067 1.267975Z" style="fill: rgb(0.000000%,0.000000%,0.000000%);stroke: none;"></path>
  <path d="M143.001740 1.267975L284.732025 143.008606" style="stroke:rgb(0.000000%,0.000000%,0.000000%); stroke-width: 0.500000;stroke-linecap: round;stroke-linejoin: round;stroke-miterlimit: 10.000000;fill: none;"></path>
  <path d="M286.149353 143.008606C286.149353 142.632690,285.999985 142.272217,285.734207 142.006424C285.468414 141.740646,285.107941 141.591278,284.732025 141.591278C284.356110 141.591278,283.995636 141.740646,283.729843 142.006424C283.464066 142.272217,283.314697 142.632690,283.314697 143.008606C283.314697 143.384521,283.464066 143.744995,283.729843 144.010788C283.995636 144.276566,284.356110 144.425934,284.732025 144.425934C285.107941 144.425934,285.468414 144.276566,285.734207 144.010788C285.999985 143.744995,286.149353 143.384521,286.149353 143.008606Z" style="fill: rgb(0.000000%,0.000000%,0.000000%);stroke: none;"></path>
  <path d="M284.732025 143.008606L142.979355 284.732025" style="stroke:rgb(0.000000%,0.000000%,0.000000%); stroke-width: 0.500000;stroke-linecap: round;stroke-linejoin: round;stroke-miterlimit: 10.000000;fill: none;"></path>
  <path d="M144.396683 284.732025C144.396683 284.356110,144.247314 283.995636,143.981537 283.729843C143.715744 283.464066,143.355270 283.314697,142.979355 283.314697C142.603439 283.314697,142.242966 283.464066,141.977173 283.729843C141.711395 283.995636,141.562027 284.356110,141.562027 284.732025C141.562027 285.107941,141.711395 285.468414,141.977173 285.734207C142.242966 285.999985,142.603439 286.149353,142.979355 286.149353C143.355270 286.149353,143.715744 285.999985,143.981537 285.734207C144.247314 285.468414,144.396683 285.107941,144.396683 284.732025Z" style="fill: rgb(0.000000%,0.000000%,0.000000%);stroke: none;"></path>
  <path d="M142.979355 284.732025L1.267975 142.960403" style="stroke:rgb(0.000000%,0.000000%,0.000000%); stroke-width: 0.500000;stroke-linecap: round;stroke-linejoin: round;stroke-miterlimit: 10.000000;fill: none;"></path>
  <path d="M2.685303 142.960403C2.685303 142.584488,2.535934 142.224014,2.270157 141.958221C2.004364 141.692444,1.643890 141.543076,1.267975 141.543076C0.892059 141.543076,0.531586 141.692444,0.265793 141.958221C0.000015 142.224014,-0.149353 142.584488,-0.149353 142.960403C-0.149353 143.336319,0.000015 143.696793,0.265793 143.962585C0.531586 144.228363,0.892059 144.377731,1.267975 144.377731C1.643890 144.377731,2.004364 144.228363,2.270157 143.962585C2.535934 143.696793,2.685303 143.336319,2.685303 142.960403Z" style="fill: rgb(0.000000%,0.000000%,0.000000%);stroke: none;"></path>
  <path d="M1.267975 142.960403L143.060242 1.267990" style="stroke:rgb(0.000000%,0.000000%,0.000000%); stroke-width: 0.500000;stroke-linecap: round;stroke-linejoin: round;stroke-miterlimit: 10.000000;fill: none;"></path>
  <path d="M144.477570 1.267990C144.477570 0.892075,144.328201 0.531601,144.062424 0.265808C143.796631 0.000031,143.436157 -0.149338,143.060242 -0.149338C142.684326 -0.149338,142.323853 0.000031,142.058060 0.265808C141.792282 0.531601,141.642914 0.892075,141.642914 1.267990C141.642914 1.643906,141.792282 2.004379,142.058060 2.270172C142.323853 2.535950,142.684326 2.685318,143.060242 2.685318C143.436157 2.685318,143.796631 2.535950,144.062424 2.270172C144.328201 2.004379,144.477570 1.643906,144.477570 1.267990Z" style="fill: rgb(0.000000%,0.000000%,0.000000%);stroke: none;"></path>
  <path d="M143.060242 1.267990L284.731995 143.087753" style="stroke:rgb(0.000000%,0.000000%,0.000000%); stroke-width: 0.500000;stroke-linecap: round;stroke-linejoin: round;stroke-miterlimit: 10.000000;fill: none;"></path>
  <path d="M286.149323 143.087753C286.149323 142.711838,285.999954 142.351364,285.734177 142.085571C285.468384 141.819794,285.107910 141.670425,284.731995 141.670425C284.356079 141.670425,283.995605 141.819794,283.729813 142.085571C283.464035 142.351364,283.314667 142.711838,283.314667 143.087753C283.314667 143.463669,283.464035 143.824142,283.729813 144.089935C283.995605 144.355713,284.356079 144.505081,284.731995 144.505081C285.107910 144.505081,285.468384 144.355713,285.734177 144.089935C285.999954 143.824142,286.149323 143.463669,286.149323 143.087753Z" style="fill: rgb(0.000000%,0.000000%,0.000000%);stroke: none;"></path>
  <path d="M284.731995 143.087753L142.877823 284.731979" style="stroke:rgb(0.000000%,0.000000%,0.000000%); stroke-width: 0.500000;stroke-linecap: round;stroke-linejoin: round;stroke-miterlimit: 10.000000;fill: none;"></path>
  <path d="M144.295151 284.731979C144.295151 284.356064,144.145782 283.995590,143.880005 283.729797C143.614212 283.464020,143.253738 283.314651,142.877823 283.314651C142.501907 283.314651,142.141434 283.464020,141.875641 283.729797C141.609863 283.995590,141.460495 284.356064,141.460495 284.731979C141.460495 285.107895,141.609863 285.468369,141.875641 285.734161C142.141434 285.999939,142.501907 286.149307,142.877823 286.149307C143.253738 286.149307,143.614212 285.999939,143.880005 285.734161C144.145782 285.468369,144.295151 285.107895,144.295151 284.731979Z" style="fill: rgb(0.000000%,0.000000%,0.000000%);stroke: none;"></path>
  <path d="M142.877823 284.731979L1.268066 142.841705" style="stroke:rgb(0.000000%,0.000000%,0.000000%); stroke-width: 0.500000;stroke-linecap: round;stroke-linejoin: round;stroke-miterlimit: 10.000000;fill: none;"></path>
  <path d="M2.685394 142.841705C2.685394 142.465790,2.536026 142.105316,2.270248 141.839523C2.004456 141.573746,1.643982 141.424377,1.268066 141.424377C0.892151 141.424377,0.531677 141.573746,0.265884 141.839523C0.000107 142.105316,-0.149261 142.465790,-0.149261 142.841705C-0.149261 143.217621,0.000107 143.578094,0.265884 143.843887C0.531677 144.109665,0.892151 144.259033,1.268066 144.259033C1.643982 144.259033,2.004456 144.109665,2.270248 143.843887C2.536026 143.578094,2.685394 143.217621,2.685394 142.841705Z" style="fill: rgb(0.000000%,0.000000%,0.000000%);stroke: none;"></path>
  <path d="M1.268066 142.841705L143.197876 1.268112" style="stroke:rgb(0.000000%,0.000000%,0.000000%); stroke-width: 0.500000;stroke-linecap: round;stroke-linejoin: round;stroke-miterlimit: 10.000000;fill: none;"></path>
  <path d="M144.615204 1.268112C144.615204 0.892197,144.465836 0.531723,144.200058 0.265930C143.934265 0.000153,143.573792 -0.149216,143.197876 -0.149216C142.821960 -0.149216,142.461487 0.000153,142.195694 0.265930C141.929916 0.531723,141.780548 0.892197,141.780548 1.268112C141.780548 1.644028,141.929916 2.004501,142.195694 2.270294C142.461487 2.536072,142.821960 2.685440,143.197876 2.685440C143.573792 2.685440,143.934265 2.536072,144.200058 2.270294C144.465836 2.004501,144.615204 1.644028,144.615204 1.268112Z" style="fill: rgb(0.000000%,0.000000%,0.000000%);stroke: none;"></path>
  <path d="M143.197876 1.268112L284.731827 143.235733" style="stroke:rgb(0.000000%,0.000000%,0.000000%); stroke-width: 0.500000;stroke-linecap: round;stroke-linejoin: round;stroke-miterlimit: 10.000000;fill: none;"></path>
  <path d="M286.149155 143.235733C286.149155 142.859818,285.999786 142.499344,285.734009 142.233551C285.468216 141.967773,285.107742 141.818405,284.731827 141.818405C284.355911 141.818405,283.995438 141.967773,283.729645 142.233551C283.463867 142.499344,283.314499 142.859818,283.314499 143.235733C283.314499 143.611649,283.463867 143.972122,283.729645 144.237915C283.995438 144.503693,284.355911 144.653061,284.731827 144.653061C285.107742 144.653061,285.468216 144.503693,285.734009 144.237915C285.999786 143.972122,286.149155 143.611649,286.149155 143.235733Z" style="fill: rgb(0.000000%,0.000000%,0.000000%);stroke: none;"></path>
  <path d="M284.731827 143.235733L142.721252 284.731750" style="stroke:rgb(0.000000%,0.000000%,0.000000%); stroke-width: 0.500000;stroke-linecap: round;stroke-linejoin: round;stroke-miterlimit: 10.000000;fill: none;"></path>
  <path d="M144.138580 284.731750C144.138580 284.355835,143.989212 283.995361,143.723434 283.729568C143.457642 283.463791,143.097168 283.314423,142.721252 283.314423C142.345337 283.314423,141.984863 283.463791,141.719070 283.729568C141.453293 283.995361,141.303925 284.355835,141.303925 284.731750C141.303925 285.107666,141.453293 285.468140,141.719070 285.733932C141.984863 285.999710,142.345337 286.149078,142.721252 286.149078C143.097168 286.149078,143.457642 285.999710,143.723434 285.733932C143.989212 285.468140,144.138580 285.107666,144.138580 284.731750Z" style="fill: rgb(0.000000%,0.000000%,0.000000%);stroke: none;"></path>
  <path d="M142.721252 284.731750L1.268341 142.676544" style="stroke:rgb(0.000000%,0.000000%,0.000000%); stroke-width: 0.500000;stroke-linecap: round;stroke-linejoin: round;stroke-miterlimit: 10.000000;fill: none;"></path>
  <path d="M2.685669 142.676544C2.685669 142.300629,2.536301 141.940155,2.270523 141.674362C2.004730 141.408585,1.644257 141.259216,1.268341 141.259216C0.892426 141.259216,0.531952 141.408585,0.266159 141.674362C0.000381 141.940155,-0.148987 142.300629,-0.148987 142.676544C-0.148987 143.052460,0.000381 143.412933,0.266159 143.678726C0.531952 143.944504,0.892426 144.093872,1.268341 144.093872C1.644257 144.093872,2.004730 143.944504,2.270523 143.678726C2.536301 143.412933,2.685669 143.052460,2.685669 142.676544Z" style="fill: rgb(0.000000%,0.000000%,0.000000%);stroke: none;"></path>
  <path d="M1.268341 142.676544L143.363052 1.268433" style="stroke:rgb(0.000000%,0.000000%,0.000000%); stroke-width: 0.500000;stroke-linecap: round;stroke-linejoin: round;stroke-miterlimit: 10.000000;fill: none;"></path>
  <path d="M144.780380 1.268433C144.780380 0.892517,144.631012 0.532043,144.365234 0.266251C144.099442 0.000473,143.738968 -0.148895,143.363052 -0.148895C142.987137 -0.148895,142.626663 0.000473,142.360870 0.266251C142.095093 0.532043,141.945724 0.892517,141.945724 1.268433C141.945724 1.644348,142.095093 2.004822,142.360870 2.270615C142.626663 2.536392,142.987137 2.685760,143.363052 2.685760C143.738968 2.685760,144.099442 2.536392,144.365234 2.270615C144.631012 2.004822,144.780380 1.644348,144.780380 1.268433Z" style="fill: rgb(0.000000%,0.000000%,0.000000%);stroke: none;"></path>
  <path d="M143.363052 1.268433L284.731430 143.409485" style="stroke:rgb(0.000000%,0.000000%,0.000000%); stroke-width: 0.500000;stroke-linecap: round;stroke-linejoin: round;stroke-miterlimit: 10.000000;fill: none;"></path>
  <path d="M286.148758 143.409485C286.148758 143.033569,285.999390 142.673096,285.733612 142.407303C285.467819 142.141525,285.107346 141.992157,284.731430 141.992157C284.355515 141.992157,283.995041 142.141525,283.729248 142.407303C283.463470 142.673096,283.314102 143.033569,283.314102 143.409485C283.314102 143.785400,283.463470 144.145874,283.729248 144.411667C283.995041 144.677444,284.355515 144.826813,284.731430 144.826813C285.107346 144.826813,285.467819 144.677444,285.733612 144.411667C285.999390 144.145874,286.148758 143.785400,286.148758 143.409485Z" style="fill: rgb(0.000000%,0.000000%,0.000000%);stroke: none;"></path>
  <path d="M284.731430 143.409485L142.547501 284.731293" style="stroke:rgb(0.000000%,0.000000%,0.000000%); stroke-width: 0.500000;stroke-linecap: round;stroke-linejoin: round;stroke-miterlimit: 10.000000;fill: none;"></path>
  <path d="M143.964828 284.731293C143.964828 284.355377,143.815460 283.994904,143.549683 283.729111C143.283890 283.463333,142.923416 283.313965,142.547501 283.313965C142.171585 283.313965,141.811111 283.463333,141.545319 283.729111C141.279541 283.994904,141.130173 284.355377,141.130173 284.731293C141.130173 285.107208,141.279541 285.467682,141.545319 285.733475C141.811111 285.999252,142.171585 286.148621,142.547501 286.148621C142.923416 286.148621,143.283890 285.999252,143.549683 285.733475C143.815460 285.467682,143.964828 285.107208,143.964828 284.731293Z" style="fill: rgb(0.000000%,0.000000%,0.000000%);stroke: none;"></path>
  <path d="M142.547501 284.731293L1.268829 142.507950" style="stroke:rgb(0.000000%,0.000000%,0.000000%); stroke-width: 0.500000;stroke-linecap: round;stroke-linejoin: round;stroke-miterlimit: 10.000000;fill: none;"></path>
  <path d="M2.686157 142.507950C2.686157 142.132034,2.536789 141.771561,2.271011 141.505768C2.005219 141.239990,1.644745 141.090622,1.268829 141.090622C0.892914 141.090622,0.532440 141.239990,0.266647 141.505768C0.000870 141.771561,-0.148499 142.132034,-0.148499 142.507950C-0.148499 142.883865,0.000870 143.244339,0.266647 143.510132C0.532440 143.775909,0.892914 143.925278,1.268829 143.925278C1.644745 143.925278,2.005219 143.775909,2.271011 143.510132C2.536789 143.244339,2.686157 142.883865,2.686157 142.507950Z" style="fill: rgb(0.000000%,0.000000%,0.000000%);stroke: none;"></path>
  <path d="M1.268829 142.507950L143.523026 1.268936" style="stroke:rgb(0.000000%,0.000000%,0.000000%); stroke-width: 0.500000;stroke-linecap: round;stroke-linejoin: round;stroke-miterlimit: 10.000000;fill: none;"></path>
  <path d="M144.940353 1.268936C144.940353 0.893021,144.790985 0.532547,144.525208 0.266754C144.259415 0.000977,143.898941 -0.148392,143.523026 -0.148392C143.147110 -0.148392,142.786636 0.000977,142.520844 0.266754C142.255066 0.532547,142.105698 0.893021,142.105698 1.268936C142.105698 1.644852,142.255066 2.005325,142.520844 2.271118C142.786636 2.536896,143.147110 2.686264,143.523026 2.686264C143.898941 2.686264,144.259415 2.536896,144.525208 2.271118C144.790985 2.005325,144.940353 1.644852,144.940353 1.268936Z" style="fill: rgb(0.000000%,0.000000%,0.000000%);stroke: none;"></path>
  <path d="M143.523026 1.268936L284.730942 143.553970" style="stroke:rgb(0.000000%,0.000000%,0.000000%); stroke-width: 0.500000;stroke-linecap: round;stroke-linejoin: round;stroke-miterlimit: 10.000000;fill: none;"></path>
  <path d="M286.148270 143.553970C286.148270 143.178055,285.998901 142.817581,285.733124 142.551788C285.467331 142.286011,285.106857 142.136642,284.730942 142.136642C284.355026 142.136642,283.994553 142.286011,283.728760 142.551788C283.462982 142.817581,283.313614 143.178055,283.313614 143.553970C283.313614 143.929886,283.462982 144.290359,283.728760 144.556152C283.994553 144.821930,284.355026 144.971298,284.730942 144.971298C285.106857 144.971298,285.467331 144.821930,285.733124 144.556152C285.998901 144.290359,286.148270 143.929886,286.148270 143.553970Z" style="fill: rgb(0.000000%,0.000000%,0.000000%);stroke: none;"></path>
  <path d="M284.730942 143.553970L142.411621 284.730804" style="stroke:rgb(0.000000%,0.000000%,0.000000%); stroke-width: 0.500000;stroke-linecap: round;stroke-linejoin: round;stroke-miterlimit: 10.000000;fill: none;"></path>
  <path d="M143.828949 284.730804C143.828949 284.354889,143.679581 283.994415,143.413803 283.728622C143.148010 283.462845,142.787537 283.313477,142.411621 283.313477C142.035706 283.313477,141.675232 283.462845,141.409439 283.728622C141.143661 283.994415,140.994293 284.354889,140.994293 284.730804C140.994293 285.106720,141.143661 285.467194,141.409439 285.732986C141.675232 285.998764,142.035706 286.148132,142.411621 286.148132C142.787537 286.148132,143.148010 285.998764,143.413803 285.732986C143.679581 285.467194,143.828949 285.106720,143.828949 284.730804Z" style="fill: rgb(0.000000%,0.000000%,0.000000%);stroke: none;"></path>
  <path d="M142.411621 284.730804L1.269394 142.366898" style="stroke:rgb(0.000000%,0.000000%,0.000000%); stroke-width: 0.500000;stroke-linecap: round;stroke-linejoin: round;stroke-miterlimit: 10.000000;fill: none;"></path>
  <path d="M2.686722 142.366898C2.686722 141.990982,2.537354 141.630508,2.271576 141.364716C2.005783 141.098938,1.645309 140.949570,1.269394 140.949570C0.893478 140.949570,0.533005 141.098938,0.267212 141.364716C0.001434 141.630508,-0.147934 141.990982,-0.147934 142.366898C-0.147934 142.742813,0.001434 143.103287,0.267212 143.369080C0.533005 143.634857,0.893478 143.784225,1.269394 143.784225C1.645309 143.784225,2.005783 143.634857,2.271576 143.369080C2.537354 143.103287,2.686722 142.742813,2.686722 142.366898Z" style="fill: rgb(0.000000%,0.000000%,0.000000%);stroke: none;"></path>
  <path d="M1.269394 142.366898L143.679550 1.269608" style="stroke:rgb(0.000000%,0.000000%,0.000000%); stroke-width: 0.500000;stroke-linecap: round;stroke-linejoin: round;stroke-miterlimit: 10.000000;fill: none;"></path>
  <path d="M145.096878 1.269608C145.096878 0.893692,144.947510 0.533218,144.681732 0.267426C144.415939 0.001648,144.055466 -0.147720,143.679550 -0.147720C143.303635 -0.147720,142.943161 0.001648,142.677368 0.267426C142.411591 0.533218,142.262222 0.893692,142.262222 1.269608C142.262222 1.645523,142.411591 2.005997,142.677368 2.271790C142.943161 2.537567,143.303635 2.686935,143.679550 2.686935C144.055466 2.686935,144.415939 2.537567,144.681732 2.271790C144.947510 2.005997,145.096878 1.645523,145.096878 1.269608Z" style="fill: rgb(0.000000%,0.000000%,0.000000%);stroke: none;"></path>
  <path d="M143.679550 1.269608L284.730148 143.729416" style="stroke:rgb(0.000000%,0.000000%,0.000000%); stroke-width: 0.500000;stroke-linecap: round;stroke-linejoin: round;stroke-miterlimit: 10.000000;fill: none;"></path>
  <path d="M286.147476 143.729416C286.147476 143.353500,285.998108 142.993027,285.732330 142.727234C285.466537 142.461456,285.106064 142.312088,284.730148 142.312088C284.354233 142.312088,283.993759 142.461456,283.727966 142.727234C283.462189 142.993027,283.312820 143.353500,283.312820 143.729416C283.312820 144.105331,283.462189 144.465805,283.727966 144.731598C283.993759 144.997375,284.354233 145.146744,284.730148 145.146744C285.106064 145.146744,285.466537 144.997375,285.732330 144.731598C285.998108 144.465805,286.147476 144.105331,286.147476 143.729416Z" style="fill: rgb(0.000000%,0.000000%,0.000000%);stroke: none;"></path>
  <path d="M284.730148 143.729416L142.218979 284.729874" style="stroke:rgb(0.000000%,0.000000%,0.000000%); stroke-width: 0.500000;stroke-linecap: round;stroke-linejoin: round;stroke-miterlimit: 10.000000;fill: none;"></path>
  <path d="M143.636307 284.729874C143.636307 284.353958,143.486938 283.993484,143.221161 283.727692C142.955368 283.461914,142.594894 283.312546,142.218979 283.312546C141.843063 283.312546,141.482590 283.461914,141.216797 283.727692C140.951019 283.993484,140.801651 284.353958,140.801651 284.729874C140.801651 285.105789,140.951019 285.466263,141.216797 285.732056C141.482590 285.997833,141.843063 286.147202,142.218979 286.147202C142.594894 286.147202,142.955368 285.997833,143.221161 285.732056C143.486938 285.466263,143.636307 285.105789,143.636307 284.729874Z" style="fill: rgb(0.000000%,0.000000%,0.000000%);stroke: none;"></path>
  <path d="M142.218979 284.729874L1.270447 142.163956" style="stroke:rgb(0.000000%,0.000000%,0.000000%); stroke-width: 0.500000;stroke-linecap: round;stroke-linejoin: round;stroke-miterlimit: 10.000000;fill: none;"></path>
  <path d="M2.687775 142.163956C2.687775 141.788040,2.538406 141.427567,2.272629 141.161774C2.006836 140.895996,1.646362 140.746628,1.270447 140.746628C0.894531 140.746628,0.534058 140.895996,0.268265 141.161774C0.002487 141.427567,-0.146881 141.788040,-0.146881 142.163956C-0.146881 142.539871,0.002487 142.900345,0.268265 143.166138C0.534058 143.431915,0.894531 143.581284,1.270447 143.581284C1.646362 143.581284,2.006836 143.431915,2.272629 143.166138C2.538406 142.900345,2.687775 142.539871,2.687775 142.163956Z" style="fill: rgb(0.000000%,0.000000%,0.000000%);stroke: none;"></path>
  <path d="M1.270447 142.163956L143.885925 1.270737" style="stroke:rgb(0.000000%,0.000000%,0.000000%); stroke-width: 0.500000;stroke-linecap: round;stroke-linejoin: round;stroke-miterlimit: 10.000000;fill: none;"></path>
  <path d="M145.303253 1.270737C145.303253 0.894821,145.153885 0.534348,144.888107 0.268555C144.622314 0.002777,144.261841 -0.146591,143.885925 -0.146591C143.510010 -0.146591,143.149536 0.002777,142.883743 0.268555C142.617966 0.534348,142.468597 0.894821,142.468597 1.270737C142.468597 1.646652,142.617966 2.007126,142.883743 2.272919C143.149536 2.538696,143.510010 2.688065,143.885925 2.688065C144.261841 2.688065,144.622314 2.538696,144.888107 2.272919C145.153885 2.007126,145.303253 1.646652,145.303253 1.270737Z" style="fill: rgb(0.000000%,0.000000%,0.000000%);stroke: none;"></path>
  <path d="M143.885925 1.270737L284.729004 143.925461" style="stroke:rgb(0.000000%,0.000000%,0.000000%); stroke-width: 0.500000;stroke-linecap: round;stroke-linejoin: round;stroke-miterlimit: 10.000000;fill: none;"></path>
  <path d="M286.146332 143.925461C286.146332 143.549545,285.996964 143.189072,285.731186 142.923279C285.465393 142.657501,285.104919 142.508133,284.729004 142.508133C284.353088 142.508133,283.992615 142.657501,283.726822 142.923279C283.461044 143.189072,283.311676 143.549545,283.311676 143.925461C283.311676 144.301376,283.461044 144.661850,283.726822 144.927643C283.992615 145.193420,284.353088 145.342789,284.729004 145.342789C285.104919 145.342789,285.465393 145.193420,285.731186 144.927643C285.996964 144.661850,286.146332 144.301376,286.146332 143.925461Z" style="fill: rgb(0.000000%,0.000000%,0.000000%);stroke: none;"></path>
  <path d="M284.729004 143.925461L142.043579 284.728806" style="stroke:rgb(0.000000%,0.000000%,0.000000%); stroke-width: 0.500000;stroke-linecap: round;stroke-linejoin: round;stroke-miterlimit: 10.000000;fill: none;"></path>
  <path d="M143.460907 284.728806C143.460907 284.352890,143.311539 283.992416,143.045761 283.726624C142.779968 283.460846,142.419495 283.311478,142.043579 283.311478C141.667664 283.311478,141.307190 283.460846,141.041397 283.726624C140.775620 283.992416,140.626251 284.352890,140.626251 284.728806C140.626251 285.104721,140.775620 285.465195,141.041397 285.730988C141.307190 285.996765,141.667664 286.146133,142.043579 286.146133C142.419495 286.146133,142.779968 285.996765,143.045761 285.730988C143.311539 285.465195,143.460907 285.104721,143.460907 284.728806Z" style="fill: rgb(0.000000%,0.000000%,0.000000%);stroke: none;"></path>
  <path d="M142.043579 284.728806L1.271362 142.017776" style="stroke:rgb(0.000000%,0.000000%,0.000000%); stroke-width: 0.500000;stroke-linecap: round;stroke-linejoin: round;stroke-miterlimit: 10.000000;fill: none;"></path>
  <path d="M2.688690 142.017776C2.688690 141.641861,2.539322 141.281387,2.273544 141.015594C2.007751 140.749817,1.647278 140.600449,1.271362 140.600449C0.895447 140.600449,0.534973 140.749817,0.269180 141.015594C0.003403 141.281387,-0.145966 141.641861,-0.145966 142.017776C-0.145966 142.393692,0.003403 142.754166,0.269180 143.019958C0.534973 143.285736,0.895447 143.435104,1.271362 143.435104C1.647278 143.435104,2.007751 143.285736,2.273544 143.019958C2.539322 142.754166,2.688690 142.393692,2.688690 142.017776Z" style="fill: rgb(0.000000%,0.000000%,0.000000%);stroke: none;"></path>
  <path d="M1.271362 142.017776L144.011459 1.271576" style="stroke:rgb(0.000000%,0.000000%,0.000000%); stroke-width: 0.500000;stroke-linecap: round;stroke-linejoin: round;stroke-miterlimit: 10.000000;fill: none;"></path>
  <path d="M145.428787 1.271576C145.428787 0.895660,145.279419 0.535187,145.013641 0.269394C144.747849 0.003616,144.387375 -0.145752,144.011459 -0.145752C143.635544 -0.145752,143.275070 0.003616,143.009277 0.269394C142.743500 0.535187,142.594131 0.895660,142.594131 1.271576C142.594131 1.647491,142.743500 2.007965,143.009277 2.273758C143.275070 2.539536,143.635544 2.688904,144.011459 2.688904C144.387375 2.688904,144.747849 2.539536,145.013641 2.273758C145.279419 2.007965,145.428787 1.647491,145.428787 1.271576Z" style="fill: rgb(0.000000%,0.000000%,0.000000%);stroke: none;"></path>
  <path d="M144.011459 1.271576L284.728226 144.037247" style="stroke:rgb(0.000000%,0.000000%,0.000000%); stroke-width: 0.500000;stroke-linecap: round;stroke-linejoin: round;stroke-miterlimit: 10.000000;fill: none;"></path>
  <path d="M286.145554 144.037247C286.145554 143.661331,285.996185 143.300858,285.730408 143.035065C285.464615 142.769287,285.104141 142.619919,284.728226 142.619919C284.352310 142.619919,283.991837 142.769287,283.726044 143.035065C283.460266 143.300858,283.310898 143.661331,283.310898 144.037247C283.310898 144.413162,283.460266 144.773636,283.726044 145.039429C283.991837 145.305206,284.352310 145.454575,284.728226 145.454575C285.104141 145.454575,285.464615 145.305206,285.730408 145.039429C285.996185 144.773636,286.145554 144.413162,286.145554 144.037247Z" style="fill: rgb(0.000000%,0.000000%,0.000000%);stroke: none;"></path>
  <path d="M284.728226 144.037247L141.942123 284.728088" style="stroke:rgb(0.000000%,0.000000%,0.000000%); stroke-width: 0.500000;stroke-linecap: round;stroke-linejoin: round;stroke-miterlimit: 10.000000;fill: none;"></path>
  <path d="M143.359451 284.728088C143.359451 284.352173,143.210083 283.991699,142.944305 283.725906C142.678513 283.460129,142.318039 283.310760,141.942123 283.310760C141.566208 283.310760,141.205734 283.460129,140.939941 283.725906C140.674164 283.991699,140.524796 284.352173,140.524796 284.728088C140.524796 285.104004,140.674164 285.464478,140.939941 285.730270C141.205734 285.996048,141.566208 286.145416,141.942123 286.145416C142.318039 286.145416,142.678513 285.996048,142.944305 285.730270C143.210083 285.464478,143.359451 285.104004,143.359451 284.728088Z" style="fill: rgb(0.000000%,0.000000%,0.000000%);stroke: none;"></path>
  <path d="M141.942123 284.728088L1.272049 141.923218" style="stroke:rgb(0.000000%,0.000000%,0.000000%); stroke-width: 0.500000;stroke-linecap: round;stroke-linejoin: round;stroke-miterlimit: 10.000000;fill: none;"></path>
  <path d="M2.689377 141.923218C2.689377 141.547302,2.540009 141.186829,2.274231 140.921036C2.008438 140.655258,1.647964 140.505890,1.272049 140.505890C0.896133 140.505890,0.535660 140.655258,0.269867 140.921036C0.004089 141.186829,-0.145279 141.547302,-0.145279 141.923218C-0.145279 142.299133,0.004089 142.659607,0.269867 142.925400C0.535660 143.191177,0.896133 143.340546,1.272049 143.340546C1.647964 143.340546,2.008438 143.191177,2.274231 142.925400C2.540009 142.659607,2.689377 142.299133,2.689377 141.923218Z" style="fill: rgb(0.000000%,0.000000%,0.000000%);stroke: none;"></path>
  <path d="M1.272049 141.923218L144.088821 1.272141" style="stroke:rgb(0.000000%,0.000000%,0.000000%); stroke-width: 0.500000;stroke-linecap: round;stroke-linejoin: round;stroke-miterlimit: 10.000000;fill: none;"></path>
  <path d="M145.506149 1.272141C145.506149 0.896225,145.356781 0.535751,145.091003 0.269958C144.825211 0.004181,144.464737 -0.145187,144.088821 -0.145187C143.712906 -0.145187,143.352432 0.004181,143.086639 0.269958C142.820862 0.535751,142.671494 0.896225,142.671494 1.272141C142.671494 1.648056,142.820862 2.008530,143.086639 2.274323C143.352432 2.540100,143.712906 2.689468,144.088821 2.689468C144.464737 2.689468,144.825211 2.540100,145.091003 2.274323C145.356781 2.008530,145.506149 1.648056,145.506149 1.272141Z" style="fill: rgb(0.000000%,0.000000%,0.000000%);stroke: none;"></path>
  <path d="M144.088821 1.272141L284.727798 144.095703" style="stroke:rgb(0.000000%,0.000000%,0.000000%); stroke-width: 0.500000;stroke-linecap: round;stroke-linejoin: round;stroke-miterlimit: 10.000000;fill: none;"></path>
  <path d="M286.145126 144.095703C286.145126 143.719788,285.995758 143.359314,285.729980 143.093521C285.464188 142.827744,285.103714 142.678375,284.727798 142.678375C284.351883 142.678375,283.991409 142.827744,283.725616 143.093521C283.459839 143.359314,283.310471 143.719788,283.310471 144.095703C283.310471 144.471619,283.459839 144.832092,283.725616 145.097885C283.991409 145.363663,284.351883 145.513031,284.727798 145.513031C285.103714 145.513031,285.464188 145.363663,285.729980 145.097885C285.995758 144.832092,286.145126 144.471619,286.145126 144.095703Z" style="fill: rgb(0.000000%,0.000000%,0.000000%);stroke: none;"></path>
  <path d="M284.727798 144.095703L141.900864 284.727768" style="stroke:rgb(0.000000%,0.000000%,0.000000%); stroke-width: 0.500000;stroke-linecap: round;stroke-linejoin: round;stroke-miterlimit: 10.000000;fill: none;"></path>
  <path d="M143.318192 284.727768C143.318192 284.351852,143.168823 283.991379,142.903046 283.725586C142.637253 283.459808,142.276779 283.310440,141.900864 283.310440C141.524948 283.310440,141.164474 283.459808,140.898682 283.725586C140.632904 283.991379,140.483536 284.351852,140.483536 284.727768C140.483536 285.103683,140.632904 285.464157,140.898682 285.729950C141.164474 285.995728,141.524948 286.145096,141.900864 286.145096C142.276779 286.145096,142.637253 285.995728,142.903046 285.729950C143.168823 285.464157,143.318192 285.103683,143.318192 284.727768Z" style="fill: rgb(0.000000%,0.000000%,0.000000%);stroke: none;"></path>
  <path d="M141.900864 284.727768L1.272232 141.900864" style="stroke:rgb(0.000000%,0.000000%,0.000000%); stroke-width: 0.500000;stroke-linecap: round;stroke-linejoin: round;stroke-miterlimit: 10.000000;fill: none;"></path>
  <path d="M2.689560 141.900864C2.689560 141.524948,2.540192 141.164474,2.274414 140.898682C2.008621 140.632904,1.648148 140.483536,1.272232 140.483536C0.896317 140.483536,0.535843 140.632904,0.270050 140.898682C0.004272 141.164474,-0.145096 141.524948,-0.145096 141.900864C-0.145096 142.276779,0.004272 142.637253,0.270050 142.903046C0.535843 143.168823,0.896317 143.318192,1.272232 143.318192C1.648148 143.318192,2.008621 143.168823,2.274414 142.903046C2.540192 142.637253,2.689560 142.276779,2.689560 141.900864Z" style="fill: rgb(0.000000%,0.000000%,0.000000%);stroke: none;"></path>
  <path d="M1.272232 141.900864L144.095703 1.272202" style="stroke:rgb(0.000000%,0.000000%,0.000000%); stroke-width: 0.500000;stroke-linecap: round;stroke-linejoin: round;stroke-miterlimit: 10.000000;fill: none;"></path>
  <path d="M145.513031 1.272202C145.513031 0.896286,145.363663 0.535812,145.097885 0.270020C144.832092 0.004242,144.471619 -0.145126,144.095703 -0.145126C143.719788 -0.145126,143.359314 0.004242,143.093521 0.270020C142.827744 0.535812,142.678375 0.896286,142.678375 1.272202C142.678375 1.648117,142.827744 2.008591,143.093521 2.274384C143.359314 2.540161,143.719788 2.689529,144.095703 2.689529C144.471619 2.689529,144.832092 2.540161,145.097885 2.274384C145.363663 2.008591,145.513031 1.648117,145.513031 1.272202Z" style="fill: rgb(0.000000%,0.000000%,0.000000%);stroke: none;"></path>
  <path d="M144.095703 1.272202L284.727859 144.088821" style="stroke:rgb(0.000000%,0.000000%,0.000000%); stroke-width: 0.500000;stroke-linecap: round;stroke-linejoin: round;stroke-miterlimit: 10.000000;fill: none;"></path>
  <path d="M286.145187 144.088821C286.145187 143.712906,285.995819 143.352432,285.730042 143.086639C285.464249 142.820862,285.103775 142.671494,284.727859 142.671494C284.351944 142.671494,283.991470 142.820862,283.725677 143.086639C283.459900 143.352432,283.310532 143.712906,283.310532 144.088821C283.310532 144.464737,283.459900 144.825211,283.725677 145.091003C283.991470 145.356781,284.351944 145.506149,284.727859 145.506149C285.103775 145.506149,285.464249 145.356781,285.730042 145.091003C285.995819 144.825211,286.145187 144.464737,286.145187 144.088821Z" style="fill: rgb(0.000000%,0.000000%,0.000000%);stroke: none;"></path>
  <path d="M284.727859 144.088821L141.923218 284.727951" style="stroke:rgb(0.000000%,0.000000%,0.000000%); stroke-width: 0.500000;stroke-linecap: round;stroke-linejoin: round;stroke-miterlimit: 10.000000;fill: none;"></path>
  <path d="M143.340546 284.727951C143.340546 284.352036,143.191177 283.991562,142.925400 283.725769C142.659607 283.459991,142.299133 283.310623,141.923218 283.310623C141.547302 283.310623,141.186829 283.459991,140.921036 283.725769C140.655258 283.991562,140.505890 284.352036,140.505890 284.727951C140.505890 285.103867,140.655258 285.464340,140.921036 285.730133C141.186829 285.995911,141.547302 286.145279,141.923218 286.145279C142.299133 286.145279,142.659607 285.995911,142.925400 285.730133C143.191177 285.464340,143.340546 285.103867,143.340546 284.727951Z" style="fill: rgb(0.000000%,0.000000%,0.000000%);stroke: none;"></path>
  <path d="M141.923218 284.727951L1.271912 141.942123" style="stroke:rgb(0.000000%,0.000000%,0.000000%); stroke-width: 0.500000;stroke-linecap: round;stroke-linejoin: round;stroke-miterlimit: 10.000000;fill: none;"></path>
  <path d="M2.689240 141.942123C2.689240 141.566208,2.539871 141.205734,2.274094 140.939941C2.008301 140.674164,1.647827 140.524796,1.271912 140.524796C0.895996 140.524796,0.535522 140.674164,0.269730 140.939941C0.003952 141.205734,-0.145416 141.566208,-0.145416 141.942123C-0.145416 142.318039,0.003952 142.678513,0.269730 142.944305C0.535522 143.210083,0.895996 143.359451,1.271912 143.359451C1.647827 143.359451,2.008301 143.210083,2.274094 142.944305C2.539871 142.678513,2.689240 142.318039,2.689240 141.942123Z" style="fill: rgb(0.000000%,0.000000%,0.000000%);stroke: none;"></path>
  <path d="M1.271912 141.942123L144.037247 1.271774" style="stroke:rgb(0.000000%,0.000000%,0.000000%); stroke-width: 0.500000;stroke-linecap: round;stroke-linejoin: round;stroke-miterlimit: 10.000000;fill: none;"></path>
  <path d="M145.454575 1.271774C145.454575 0.895859,145.305206 0.535385,145.039429 0.269592C144.773636 0.003815,144.413162 -0.145554,144.037247 -0.145554C143.661331 -0.145554,143.300858 0.003815,143.035065 0.269592C142.769287 0.535385,142.619919 0.895859,142.619919 1.271774C142.619919 1.647690,142.769287 2.008163,143.035065 2.273956C143.300858 2.539734,143.661331 2.689102,144.037247 2.689102C144.413162 2.689102,144.773636 2.539734,145.039429 2.273956C145.305206 2.008163,145.454575 1.647690,145.454575 1.271774Z" style="fill: rgb(0.000000%,0.000000%,0.000000%);stroke: none;"></path>
  <path d="M144.037247 1.271774L284.728409 144.013168" style="stroke:rgb(0.000000%,0.000000%,0.000000%); stroke-width: 0.500000;stroke-linecap: round;stroke-linejoin: round;stroke-miterlimit: 10.000000;fill: none;"></path>
  <path d="M286.145737 144.013168C286.145737 143.637253,285.996368 143.276779,285.730591 143.010986C285.464798 142.745209,285.104324 142.595840,284.728409 142.595840C284.352493 142.595840,283.992020 142.745209,283.726227 143.010986C283.460449 143.276779,283.311081 143.637253,283.311081 144.013168C283.311081 144.389084,283.460449 144.749557,283.726227 145.015350C283.992020 145.281128,284.352493 145.430496,284.728409 145.430496C285.104324 145.430496,285.464798 145.281128,285.730591 145.015350C285.996368 144.749557,286.145737 144.389084,286.145737 144.013168Z" style="fill: rgb(0.000000%,0.000000%,0.000000%);stroke: none;"></path>
  <path d="M284.728409 144.013168L142.009171 284.728561" style="stroke:rgb(0.000000%,0.000000%,0.000000%); stroke-width: 0.500000;stroke-linecap: round;stroke-linejoin: round;stroke-miterlimit: 10.000000;fill: none;"></path>
  <path d="M143.426498 284.728561C143.426498 284.352646,143.277130 283.992172,143.011353 283.726379C142.745560 283.460602,142.385086 283.311234,142.009171 283.311234C141.633255 283.311234,141.272781 283.460602,141.006989 283.726379C140.741211 283.992172,140.591843 284.352646,140.591843 284.728561C140.591843 285.104477,140.741211 285.464951,141.006989 285.730743C141.272781 285.996521,141.633255 286.145889,142.009171 286.145889C142.385086 286.145889,142.745560 285.996521,143.011353 285.730743C143.277130 285.464951,143.426498 285.104477,143.426498 284.728561Z" style="fill: rgb(0.000000%,0.000000%,0.000000%);stroke: none;"></path>
  <path d="M142.009171 284.728561L1.271317 142.024658" style="stroke:rgb(0.000000%,0.000000%,0.000000%); stroke-width: 0.500000;stroke-linecap: round;stroke-linejoin: round;stroke-miterlimit: 10.000000;fill: none;"></path>
  <path d="M2.688644 142.024658C2.688644 141.648743,2.539276 141.288269,2.273499 141.022476C2.007706 140.756699,1.647232 140.607330,1.271317 140.607330C0.895401 140.607330,0.534927 140.756699,0.269135 141.022476C0.003357 141.288269,-0.146011 141.648743,-0.146011 142.024658C-0.146011 142.400574,0.003357 142.761047,0.269135 143.026840C0.534927 143.292618,0.895401 143.441986,1.271317 143.441986C1.647232 143.441986,2.007706 143.292618,2.273499 143.026840C2.539276 142.761047,2.688644 142.400574,2.688644 142.024658Z" style="fill: rgb(0.000000%,0.000000%,0.000000%);stroke: none;"></path>
  <path d="M1.271317 142.024658L143.956421 1.271194" style="stroke:rgb(0.000000%,0.000000%,0.000000%); stroke-width: 0.500000;stroke-linecap: round;stroke-linejoin: round;stroke-miterlimit: 10.000000;fill: none;"></path>
  <path d="M145.373749 1.271194C145.373749 0.895279,145.224380 0.534805,144.958603 0.269012C144.692810 0.003235,144.332336 -0.146133,143.956421 -0.146133C143.580505 -0.146133,143.220032 0.003235,142.954239 0.269012C142.688461 0.534805,142.539093 0.895279,142.539093 1.271194C142.539093 1.647110,142.688461 2.007584,142.954239 2.273376C143.220032 2.539154,143.580505 2.688522,143.956421 2.688522C144.332336 2.688522,144.692810 2.539154,144.958603 2.273376C145.224380 2.007584,145.373749 1.647110,145.373749 1.271194Z" style="fill: rgb(0.000000%,0.000000%,0.000000%);stroke: none;"></path>
  <path d="M143.956421 1.271194L284.728958 143.932358" style="stroke:rgb(0.000000%,0.000000%,0.000000%); stroke-width: 0.500000;stroke-linecap: round;stroke-linejoin: round;stroke-miterlimit: 10.000000;fill: none;"></path>
  <path d="M286.146286 143.932358C286.146286 143.556442,285.996918 143.195969,285.731140 142.930176C285.465347 142.664398,285.104874 142.515030,284.728958 142.515030C284.353043 142.515030,283.992569 142.664398,283.726776 142.930176C283.460999 143.195969,283.311630 143.556442,283.311630 143.932358C283.311630 144.308273,283.460999 144.668747,283.726776 144.934540C283.992569 145.200317,284.353043 145.349686,284.728958 145.349686C285.104874 145.349686,285.465347 145.200317,285.731140 144.934540C285.996918 144.668747,286.146286 144.308273,286.146286 143.932358Z" style="fill: rgb(0.000000%,0.000000%,0.000000%);stroke: none;"></path>
  <path d="M284.728958 143.932358L142.090012 284.729111" style="stroke:rgb(0.000000%,0.000000%,0.000000%); stroke-width: 0.500000;stroke-linecap: round;stroke-linejoin: round;stroke-miterlimit: 10.000000;fill: none;"></path>
  <path d="M143.507339 284.729111C143.507339 284.353195,143.357971 283.992722,143.092194 283.726929C142.826401 283.461151,142.465927 283.311783,142.090012 283.311783C141.714096 283.311783,141.353622 283.461151,141.087830 283.726929C140.822052 283.992722,140.672684 284.353195,140.672684 284.729111C140.672684 285.105026,140.822052 285.465500,141.087830 285.731293C141.353622 285.997070,141.714096 286.146439,142.090012 286.146439C142.465927 286.146439,142.826401 285.997070,143.092194 285.731293C143.357971 285.465500,143.507339 285.105026,143.507339 284.729111Z" style="fill: rgb(0.000000%,0.000000%,0.000000%);stroke: none;"></path>
  <path d="M142.090012 284.729111L1.270706 142.119232" style="stroke:rgb(0.000000%,0.000000%,0.000000%); stroke-width: 0.500000;stroke-linecap: round;stroke-linejoin: round;stroke-miterlimit: 10.000000;fill: none;"></path>
  <path d="M2.688034 142.119232C2.688034 141.743317,2.538666 141.382843,2.272888 141.117050C2.007095 140.851273,1.646622 140.701904,1.270706 140.701904C0.894791 140.701904,0.534317 140.851273,0.268524 141.117050C0.002747 141.382843,-0.146622 141.743317,-0.146622 142.119232C-0.146622 142.495148,0.002747 142.855621,0.268524 143.121414C0.534317 143.387192,0.894791 143.536560,1.270706 143.536560C1.646622 143.536560,2.007095 143.387192,2.272888 143.121414C2.538666 142.855621,2.688034 142.495148,2.688034 142.119232Z" style="fill: rgb(0.000000%,0.000000%,0.000000%);stroke: none;"></path>
  <path d="M1.270706 142.119232L143.851532 1.270538" style="stroke:rgb(0.000000%,0.000000%,0.000000%); stroke-width: 0.500000;stroke-linecap: round;stroke-linejoin: round;stroke-miterlimit: 10.000000;fill: none;"></path>
  <path d="M145.268860 1.270538C145.268860 0.894623,145.119492 0.534149,144.853714 0.268356C144.587921 0.002579,144.227448 -0.146790,143.851532 -0.146790C143.475616 -0.146790,143.115143 0.002579,142.849350 0.268356C142.583572 0.534149,142.434204 0.894623,142.434204 1.270538C142.434204 1.646454,142.583572 2.006927,142.849350 2.272720C143.115143 2.538498,143.475616 2.687866,143.851532 2.687866C144.227448 2.687866,144.587921 2.538498,144.853714 2.272720C145.119492 2.006927,145.268860 1.646454,145.268860 1.270538Z" style="fill: rgb(0.000000%,0.000000%,0.000000%);stroke: none;"></path>
  <path d="M143.851532 1.270538L284.729691 143.815414" style="stroke:rgb(0.000000%,0.000000%,0.000000%); stroke-width: 0.500000;stroke-linecap: round;stroke-linejoin: round;stroke-miterlimit: 10.000000;fill: none;"></path>
  <path d="M286.147018 143.815414C286.147018 143.439499,285.997650 143.079025,285.731873 142.813232C285.466080 142.547455,285.105606 142.398087,284.729691 142.398087C284.353775 142.398087,283.993301 142.547455,283.727509 142.813232C283.461731 143.079025,283.312363 143.439499,283.312363 143.815414C283.312363 144.191330,283.461731 144.551804,283.727509 144.817596C283.993301 145.083374,284.353775 145.232742,284.729691 145.232742C285.105606 145.232742,285.466080 145.083374,285.731873 144.817596C285.997650 144.551804,286.147018 144.191330,286.147018 143.815414Z" style="fill: rgb(0.000000%,0.000000%,0.000000%);stroke: none;"></path>
  <path d="M284.729691 143.815414L142.220703 284.729889" style="stroke:rgb(0.000000%,0.000000%,0.000000%); stroke-width: 0.500000;stroke-linecap: round;stroke-linejoin: round;stroke-miterlimit: 10.000000;fill: none;"></path>
  <path d="M143.638031 284.729889C143.638031 284.353973,143.488663 283.993500,143.222885 283.727707C142.957092 283.461929,142.596619 283.312561,142.220703 283.312561C141.844788 283.312561,141.484314 283.461929,141.218521 283.727707C140.952744 283.993500,140.803375 284.353973,140.803375 284.729889C140.803375 285.105804,140.952744 285.466278,141.218521 285.732071C141.484314 285.997849,141.844788 286.147217,142.220703 286.147217C142.596619 286.147217,142.957092 285.997849,143.222885 285.732071C143.488663 285.466278,143.638031 285.105804,143.638031 284.729889Z" style="fill: rgb(0.000000%,0.000000%,0.000000%);stroke: none;"></path>
  <path d="M142.220703 284.729889L1.269913 142.258545" style="stroke:rgb(0.000000%,0.000000%,0.000000%); stroke-width: 0.500000;stroke-linecap: round;stroke-linejoin: round;stroke-miterlimit: 10.000000;fill: none;"></path>
  <path d="M2.687241 142.258545C2.687241 141.882629,2.537872 141.522156,2.272095 141.256363C2.006302 140.990585,1.645828 140.841217,1.269913 140.841217C0.893997 140.841217,0.533524 140.990585,0.267731 141.256363C0.001953 141.522156,-0.147415 141.882629,-0.147415 142.258545C-0.147415 142.634460,0.001953 142.994934,0.267731 143.260727C0.533524 143.526505,0.893997 143.675873,1.269913 143.675873C1.645828 143.675873,2.006302 143.526505,2.272095 143.260727C2.537872 142.994934,2.687241 142.634460,2.687241 142.258545Z" style="fill: rgb(0.000000%,0.000000%,0.000000%);stroke: none;"></path>
  <path d="M1.269913 142.258545L143.705322 1.269730" style="stroke:rgb(0.000000%,0.000000%,0.000000%); stroke-width: 0.500000;stroke-linecap: round;stroke-linejoin: round;stroke-miterlimit: 10.000000;fill: none;"></path>
  <path d="M145.122650 1.269730C145.122650 0.893814,144.973282 0.533340,144.707504 0.267548C144.441711 0.001770,144.081238 -0.147598,143.705322 -0.147598C143.329407 -0.147598,142.968933 0.001770,142.703140 0.267548C142.437363 0.533340,142.287994 0.893814,142.287994 1.269730C142.287994 1.645645,142.437363 2.006119,142.703140 2.271912C142.968933 2.537689,143.329407 2.687057,143.705322 2.687057C144.081238 2.687057,144.441711 2.537689,144.707504 2.271912C144.973282 2.006119,145.122650 1.645645,145.122650 1.269730Z" style="fill: rgb(0.000000%,0.000000%,0.000000%);stroke: none;"></path>
  <path d="M143.705322 1.269730L284.730438 143.670944" style="stroke:rgb(0.000000%,0.000000%,0.000000%); stroke-width: 0.500000;stroke-linecap: round;stroke-linejoin: round;stroke-miterlimit: 10.000000;fill: none;"></path>
  <path d="M286.147766 143.670944C286.147766 143.295029,285.998398 142.934555,285.732620 142.668762C285.466827 142.402985,285.106354 142.253616,284.730438 142.253616C284.354523 142.253616,283.994049 142.402985,283.728256 142.668762C283.462479 142.934555,283.313110 143.295029,283.313110 143.670944C283.313110 144.046860,283.462479 144.407333,283.728256 144.673126C283.994049 144.938904,284.354523 145.088272,284.730438 145.088272C285.106354 145.088272,285.466827 144.938904,285.732620 144.673126C285.998398 144.407333,286.147766 144.046860,286.147766 143.670944Z" style="fill: rgb(0.000000%,0.000000%,0.000000%);stroke: none;"></path>
  <path d="M284.730438 143.670944L142.363449 284.730606" style="stroke:rgb(0.000000%,0.000000%,0.000000%); stroke-width: 0.500000;stroke-linecap: round;stroke-linejoin: round;stroke-miterlimit: 10.000000;fill: none;"></path>
  <path d="M143.780777 284.730606C143.780777 284.354691,143.631409 283.994217,143.365631 283.728424C143.099838 283.462646,142.739365 283.313278,142.363449 283.313278C141.987534 283.313278,141.627060 283.462646,141.361267 283.728424C141.095490 283.994217,140.946121 284.354691,140.946121 284.730606C140.946121 285.106522,141.095490 285.466995,141.361267 285.732788C141.627060 285.998566,141.987534 286.147934,142.363449 286.147934C142.739365 286.147934,143.099838 285.998566,143.365631 285.732788C143.631409 285.466995,143.780777 285.106522,143.780777 284.730606Z" style="fill: rgb(0.000000%,0.000000%,0.000000%);stroke: none;"></path>
  <path d="M142.363449 284.730606L1.269257 142.394424" style="stroke:rgb(0.000000%,0.000000%,0.000000%); stroke-width: 0.500000;stroke-linecap: round;stroke-linejoin: round;stroke-miterlimit: 10.000000;fill: none;"></path>
  <path d="M2.686584 142.394424C2.686584 142.018509,2.537216 141.658035,2.271439 141.392242C2.005646 141.126465,1.645172 140.977097,1.269257 140.977097C0.893341 140.977097,0.532867 141.126465,0.267075 141.392242C0.001297 141.658035,-0.148071 142.018509,-0.148071 142.394424C-0.148071 142.770340,0.001297 143.130814,0.267075 143.396606C0.532867 143.662384,0.893341 143.811752,1.269257 143.811752C1.645172 143.811752,2.005646 143.662384,2.271439 143.396606C2.537216 143.130814,2.686584 142.770340,2.686584 142.394424Z" style="fill: rgb(0.000000%,0.000000%,0.000000%);stroke: none;"></path>
  <path d="M1.269257 142.394424L143.578064 1.269150" style="stroke:rgb(0.000000%,0.000000%,0.000000%); stroke-width: 0.500000;stroke-linecap: round;stroke-linejoin: round;stroke-miterlimit: 10.000000;fill: none;"></path>
  <path d="M144.995392 1.269150C144.995392 0.893234,144.846024 0.532761,144.580246 0.266968C144.314453 0.001190,143.953979 -0.148178,143.578064 -0.148178C143.202148 -0.148178,142.841675 0.001190,142.575882 0.266968C142.310104 0.532761,142.160736 0.893234,142.160736 1.269150C142.160736 1.645065,142.310104 2.005539,142.575882 2.271332C142.841675 2.537109,143.202148 2.686478,143.578064 2.686478C143.953979 2.686478,144.314453 2.537109,144.580246 2.271332C144.846024 2.005539,144.995392 1.645065,144.995392 1.269150Z" style="fill: rgb(0.000000%,0.000000%,0.000000%);stroke: none;"></path>
  <path d="M143.578064 1.269150L284.730942 143.553970" style="stroke:rgb(0.000000%,0.000000%,0.000000%); stroke-width: 0.500000;stroke-linecap: round;stroke-linejoin: round;stroke-miterlimit: 10.000000;fill: none;"></path>
  <path d="M286.148270 143.553970C286.148270 143.178055,285.998901 142.817581,285.733124 142.551788C285.467331 142.286011,285.106857 142.136642,284.730942 142.136642C284.355026 142.136642,283.994553 142.286011,283.728760 142.551788C283.462982 142.817581,283.313614 143.178055,283.313614 143.553970C283.313614 143.929886,283.462982 144.290359,283.728760 144.556152C283.994553 144.821930,284.355026 144.971298,284.730942 144.971298C285.106857 144.971298,285.467331 144.821930,285.733124 144.556152C285.998901 144.290359,286.148270 143.929886,286.148270 143.553970Z" style="fill: rgb(0.000000%,0.000000%,0.000000%);stroke: none;"></path>
  <path d="M284.730942 143.553970L142.466660 284.731018" style="stroke:rgb(0.000000%,0.000000%,0.000000%); stroke-width: 0.500000;stroke-linecap: round;stroke-linejoin: round;stroke-miterlimit: 10.000000;fill: none;"></path>
  <path d="M143.883987 284.731018C143.883987 284.355103,143.734619 283.994629,143.468842 283.728836C143.203049 283.463058,142.842575 283.313690,142.466660 283.313690C142.090744 283.313690,141.730270 283.463058,141.464478 283.728836C141.198700 283.994629,141.049332 284.355103,141.049332 284.731018C141.049332 285.106934,141.198700 285.467407,141.464478 285.733200C141.730270 285.998978,142.090744 286.148346,142.466660 286.148346C142.842575 286.148346,143.203049 285.998978,143.468842 285.733200C143.734619 285.467407,143.883987 285.106934,143.883987 284.731018Z" style="fill: rgb(0.000000%,0.000000%,0.000000%);stroke: none;"></path>
  <path d="M142.466660 284.731018L1.268875 142.494171" style="stroke:rgb(0.000000%,0.000000%,0.000000%); stroke-width: 0.500000;stroke-linecap: round;stroke-linejoin: round;stroke-miterlimit: 10.000000;fill: none;"></path>
  <path d="M2.686203 142.494171C2.686203 142.118256,2.536835 141.757782,2.271057 141.491989C2.005264 141.226212,1.644791 141.076843,1.268875 141.076843C0.892960 141.076843,0.532486 141.226212,0.266693 141.491989C0.000916 141.757782,-0.148453 142.118256,-0.148453 142.494171C-0.148453 142.870087,0.000916 143.230560,0.266693 143.496353C0.532486 143.762131,0.892960 143.911499,1.268875 143.911499C1.644791 143.911499,2.005264 143.762131,2.271057 143.496353C2.536835 143.230560,2.686203 142.870087,2.686203 142.494171Z" style="fill: rgb(0.000000%,0.000000%,0.000000%);stroke: none;"></path>
  <path d="M1.268875 142.494171L143.480011 1.268784" style="stroke:rgb(0.000000%,0.000000%,0.000000%); stroke-width: 0.500000;stroke-linecap: round;stroke-linejoin: round;stroke-miterlimit: 10.000000;fill: none;"></path>
  <path d="M144.897339 1.268784C144.897339 0.892868,144.747971 0.532394,144.482193 0.266602C144.216400 0.000824,143.855927 -0.148544,143.480011 -0.148544C143.104095 -0.148544,142.743622 0.000824,142.477829 0.266602C142.212051 0.532394,142.062683 0.892868,142.062683 1.268784C142.062683 1.644699,142.212051 2.005173,142.477829 2.270966C142.743622 2.536743,143.104095 2.686111,143.480011 2.686111C143.855927 2.686111,144.216400 2.536743,144.482193 2.270966C144.747971 2.005173,144.897339 1.644699,144.897339 1.268784Z" style="fill: rgb(0.000000%,0.000000%,0.000000%);stroke: none;"></path>
  <path d="M143.480011 1.268784L284.731308 143.449051" style="stroke:rgb(0.000000%,0.000000%,0.000000%); stroke-width: 0.500000;stroke-linecap: round;stroke-linejoin: round;stroke-miterlimit: 10.000000;fill: none;"></path>
  <path d="M286.148636 143.449051C286.148636 143.073135,285.999268 142.712662,285.733490 142.446869C285.467697 142.181091,285.107224 142.031723,284.731308 142.031723C284.355392 142.031723,283.994919 142.181091,283.729126 142.446869C283.463348 142.712662,283.313980 143.073135,283.313980 143.449051C283.313980 143.824966,283.463348 144.185440,283.729126 144.451233C283.994919 144.717010,284.355392 144.866379,284.731308 144.866379C285.107224 144.866379,285.467697 144.717010,285.733490 144.451233C285.999268 144.185440,286.148636 143.824966,286.148636 143.449051Z" style="fill: rgb(0.000000%,0.000000%,0.000000%);stroke: none;"></path>
  <path d="M284.731308 143.449051L142.587067 284.731430" style="stroke:rgb(0.000000%,0.000000%,0.000000%); stroke-width: 0.500000;stroke-linecap: round;stroke-linejoin: round;stroke-miterlimit: 10.000000;fill: none;"></path>
  <path d="M144.004395 284.731430C144.004395 284.355515,143.855026 283.995041,143.589249 283.729248C143.323456 283.463470,142.962982 283.314102,142.587067 283.314102C142.211151 283.314102,141.850677 283.463470,141.584885 283.729248C141.319107 283.995041,141.169739 284.355515,141.169739 284.731430C141.169739 285.107346,141.319107 285.467819,141.584885 285.733612C141.850677 285.999390,142.211151 286.148758,142.587067 286.148758C142.962982 286.148758,143.323456 285.999390,143.589249 285.733612C143.855026 285.467819,144.004395 285.107346,144.004395 284.731430Z" style="fill: rgb(0.000000%,0.000000%,0.000000%);stroke: none;"></path>
  <path d="M142.587067 284.731430L1.268478 142.621475" style="stroke:rgb(0.000000%,0.000000%,0.000000%); stroke-width: 0.500000;stroke-linecap: round;stroke-linejoin: round;stroke-miterlimit: 10.000000;fill: none;"></path>
  <path d="M2.685806 142.621475C2.685806 142.245560,2.536438 141.885086,2.270660 141.619293C2.004868 141.353516,1.644394 141.204147,1.268478 141.204147C0.892563 141.204147,0.532089 141.353516,0.266296 141.619293C0.000519 141.885086,-0.148849 142.245560,-0.148849 142.621475C-0.148849 142.997391,0.000519 143.357864,0.266296 143.623657C0.532089 143.889435,0.892563 144.038803,1.268478 144.038803C1.644394 144.038803,2.004868 143.889435,2.270660 143.623657C2.536438 143.357864,2.685806 142.997391,2.685806 142.621475Z" style="fill: rgb(0.000000%,0.000000%,0.000000%);stroke: none;"></path>
  <path d="M1.268478 142.621475L143.342407 1.268387" style="stroke:rgb(0.000000%,0.000000%,0.000000%); stroke-width: 0.500000;stroke-linecap: round;stroke-linejoin: round;stroke-miterlimit: 10.000000;fill: none;"></path>
  <path d="M144.759735 1.268387C144.759735 0.892471,144.610367 0.531998,144.344589 0.266205C144.078796 0.000427,143.718323 -0.148941,143.342407 -0.148941C142.966492 -0.148941,142.606018 0.000427,142.340225 0.266205C142.074448 0.531998,141.925079 0.892471,141.925079 1.268387C141.925079 1.644302,142.074448 2.004776,142.340225 2.270569C142.606018 2.536346,142.966492 2.685715,143.342407 2.685715C143.718323 2.685715,144.078796 2.536346,144.344589 2.270569C144.610367 2.004776,144.759735 1.644302,144.759735 1.268387Z" style="fill: rgb(0.000000%,0.000000%,0.000000%);stroke: none;"></path>
  <path d="M143.342407 1.268387L284.731705 143.302826" style="stroke:rgb(0.000000%,0.000000%,0.000000%); stroke-width: 0.500000;stroke-linecap: round;stroke-linejoin: round;stroke-miterlimit: 10.000000;fill: none;"></path>
  <path d="M286.149033 143.302826C286.149033 142.926910,285.999664 142.566437,285.733887 142.300644C285.468094 142.034866,285.107620 141.885498,284.731705 141.885498C284.355789 141.885498,283.995316 142.034866,283.729523 142.300644C283.463745 142.566437,283.314377 142.926910,283.314377 143.302826C283.314377 143.678741,283.463745 144.039215,283.729523 144.305008C283.995316 144.570786,284.355789 144.720154,284.731705 144.720154C285.107620 144.720154,285.468094 144.570786,285.733887 144.305008C285.999664 144.039215,286.149033 143.678741,286.149033 143.302826Z" style="fill: rgb(0.000000%,0.000000%,0.000000%);stroke: none;"></path>
  <path d="M284.731705 143.302826L142.731583 284.731766" style="stroke:rgb(0.000000%,0.000000%,0.000000%); stroke-width: 0.500000;stroke-linecap: round;stroke-linejoin: round;stroke-miterlimit: 10.000000;fill: none;"></path>
  <path d="M144.148911 284.731766C144.148911 284.355850,143.999542 283.995377,143.733765 283.729584C143.467972 283.463806,143.107498 283.314438,142.731583 283.314438C142.355667 283.314438,141.995193 283.463806,141.729401 283.729584C141.463623 283.995377,141.314255 284.355850,141.314255 284.731766C141.314255 285.107681,141.463623 285.468155,141.729401 285.733948C141.995193 285.999725,142.355667 286.149094,142.731583 286.149094C143.107498 286.149094,143.467972 285.999725,143.733765 285.733948C143.999542 285.468155,144.148911 285.107681,144.148911 284.731766Z" style="fill: rgb(0.000000%,0.000000%,0.000000%);stroke: none;"></path>
  <path d="M142.731583 284.731766L1.268173 142.762543" style="stroke:rgb(0.000000%,0.000000%,0.000000%); stroke-width: 0.500000;stroke-linecap: round;stroke-linejoin: round;stroke-miterlimit: 10.000000;fill: none;"></path>
  <path d="M2.685501 142.762543C2.685501 142.386627,2.536133 142.026154,2.270355 141.760361C2.004562 141.494583,1.644089 141.345215,1.268173 141.345215C0.892258 141.345215,0.531784 141.494583,0.265991 141.760361C0.000214 142.026154,-0.149155 142.386627,-0.149155 142.762543C-0.149155 143.138458,0.000214 143.498932,0.265991 143.764725C0.531784 144.030502,0.892258 144.179871,1.268173 144.179871C1.644089 144.179871,2.004562 144.030502,2.270355 143.764725C2.536133 143.498932,2.685501 143.138458,2.685501 142.762543Z" style="fill: rgb(0.000000%,0.000000%,0.000000%);stroke: none;"></path>
  <path d="M1.268173 142.762543L143.213364 1.268143" style="stroke:rgb(0.000000%,0.000000%,0.000000%); stroke-width: 0.500000;stroke-linecap: round;stroke-linejoin: round;stroke-miterlimit: 10.000000;fill: none;"></path>
  <path d="M144.630692 1.268143C144.630692 0.892227,144.481323 0.531754,144.215546 0.265961C143.949753 0.000183,143.589279 -0.149185,143.213364 -0.149185C142.837448 -0.149185,142.476974 0.000183,142.211182 0.265961C141.945404 0.531754,141.796036 0.892227,141.796036 1.268143C141.796036 1.644058,141.945404 2.004532,142.211182 2.270325C142.476974 2.536102,142.837448 2.685471,143.213364 2.685471C143.589279 2.685471,143.949753 2.536102,144.215546 2.270325C144.481323 2.004532,144.630692 1.644058,144.630692 1.268143Z" style="fill: rgb(0.000000%,0.000000%,0.000000%);stroke: none;"></path>
  <path d="M143.213364 1.268143L284.731888 143.196152" style="stroke:rgb(0.000000%,0.000000%,0.000000%); stroke-width: 0.500000;stroke-linecap: round;stroke-linejoin: round;stroke-miterlimit: 10.000000;fill: none;"></path>
  <path d="M286.149216 143.196152C286.149216 142.820236,285.999847 142.459763,285.734070 142.193970C285.468277 141.928192,285.107803 141.778824,284.731888 141.778824C284.355972 141.778824,283.995499 141.928192,283.729706 142.193970C283.463928 142.459763,283.314560 142.820236,283.314560 143.196152C283.314560 143.572067,283.463928 143.932541,283.729706 144.198334C283.995499 144.464111,284.355972 144.613480,284.731888 144.613480C285.107803 144.613480,285.468277 144.464111,285.734070 144.198334C285.999847 143.932541,286.149216 143.572067,286.149216 143.196152Z" style="fill: rgb(0.000000%,0.000000%,0.000000%);stroke: none;"></path>
  <path d="M284.731888 143.196152L142.817612 284.731903" style="stroke:rgb(0.000000%,0.000000%,0.000000%); stroke-width: 0.500000;stroke-linecap: round;stroke-linejoin: round;stroke-miterlimit: 10.000000;fill: none;"></path>
  <path d="M144.234940 284.731903C144.234940 284.355988,144.085571 283.995514,143.819794 283.729721C143.554001 283.463943,143.193527 283.314575,142.817612 283.314575C142.441696 283.314575,142.081223 283.463943,141.815430 283.729721C141.549652 283.995514,141.400284 284.355988,141.400284 284.731903C141.400284 285.107819,141.549652 285.468292,141.815430 285.734085C142.081223 285.999863,142.441696 286.149231,142.817612 286.149231C143.193527 286.149231,143.554001 285.999863,143.819794 285.734085C144.085571 285.468292,144.234940 285.107819,144.234940 284.731903Z" style="fill: rgb(0.000000%,0.000000%,0.000000%);stroke: none;"></path>
  <path d="M142.817612 284.731903L1.268066 142.834808" style="stroke:rgb(0.000000%,0.000000%,0.000000%); stroke-width: 0.500000;stroke-linecap: round;stroke-linejoin: round;stroke-miterlimit: 10.000000;fill: none;"></path>
  <path d="M2.685394 142.834808C2.685394 142.458893,2.536026 142.098419,2.270248 141.832626C2.004456 141.566849,1.643982 141.417480,1.268066 141.417480C0.892151 141.417480,0.531677 141.566849,0.265884 141.832626C0.000107 142.098419,-0.149261 142.458893,-0.149261 142.834808C-0.149261 143.210724,0.000107 143.571198,0.265884 143.836990C0.531677 144.102768,0.892151 144.252136,1.268066 144.252136C1.643982 144.252136,2.004456 144.102768,2.270248 143.836990C2.536026 143.571198,2.685394 143.210724,2.685394 142.834808Z" style="fill: rgb(0.000000%,0.000000%,0.000000%);stroke: none;"></path>
  <path d="M1.268066 142.834808L143.149689 1.268051" style="stroke:rgb(0.000000%,0.000000%,0.000000%); stroke-width: 0.500000;stroke-linecap: round;stroke-linejoin: round;stroke-miterlimit: 10.000000;fill: none;"></path>
  <path d="M144.567017 1.268051C144.567017 0.892136,144.417648 0.531662,144.151871 0.265869C143.886078 0.000092,143.525604 -0.149277,143.149689 -0.149277C142.773773 -0.149277,142.413300 0.000092,142.147507 0.265869C141.881729 0.531662,141.732361 0.892136,141.732361 1.268051C141.732361 1.643967,141.881729 2.004440,142.147507 2.270233C142.413300 2.536011,142.773773 2.685379,143.149689 2.685379C143.525604 2.685379,143.886078 2.536011,144.151871 2.270233C144.417648 2.004440,144.567017 1.643967,144.567017 1.268051Z" style="fill: rgb(0.000000%,0.000000%,0.000000%);stroke: none;"></path>
  <path d="M143.149689 1.268051L284.731964 143.139389" style="stroke:rgb(0.000000%,0.000000%,0.000000%); stroke-width: 0.500000;stroke-linecap: round;stroke-linejoin: round;stroke-miterlimit: 10.000000;fill: none;"></path>
  <path d="M286.149292 143.139389C286.149292 142.763474,285.999924 142.403000,285.734146 142.137207C285.468353 141.871429,285.107880 141.722061,284.731964 141.722061C284.356049 141.722061,283.995575 141.871429,283.729782 142.137207C283.464005 142.403000,283.314636 142.763474,283.314636 143.139389C283.314636 143.515305,283.464005 143.875778,283.729782 144.141571C283.995575 144.407349,284.356049 144.556717,284.731964 144.556717C285.107880 144.556717,285.468353 144.407349,285.734146 144.141571C285.999924 143.875778,286.149292 143.515305,286.149292 143.139389Z" style="fill: rgb(0.000000%,0.000000%,0.000000%);stroke: none;"></path>
  <path d="M284.731964 143.139389L142.872665 284.731979" style="stroke:rgb(0.000000%,0.000000%,0.000000%); stroke-width: 0.500000;stroke-linecap: round;stroke-linejoin: round;stroke-miterlimit: 10.000000;fill: none;"></path>
  <path d="M144.289993 284.731979C144.289993 284.356064,144.140625 283.995590,143.874847 283.729797C143.609055 283.464020,143.248581 283.314651,142.872665 283.314651C142.496750 283.314651,142.136276 283.464020,141.870483 283.729797C141.604706 283.995590,141.455338 284.356064,141.455338 284.731979C141.455338 285.107895,141.604706 285.468369,141.870483 285.734161C142.136276 285.999939,142.496750 286.149307,142.872665 286.149307C143.248581 286.149307,143.609055 285.999939,143.874847 285.734161C144.140625 285.468369,144.289993 285.107895,144.289993 284.731979Z" style="fill: rgb(0.000000%,0.000000%,0.000000%);stroke: none;"></path>
  <path d="M142.872665 284.731979L1.268021 142.881256" style="stroke:rgb(0.000000%,0.000000%,0.000000%); stroke-width: 0.500000;stroke-linecap: round;stroke-linejoin: round;stroke-miterlimit: 10.000000;fill: none;"></path>
  <path d="M2.685349 142.881256C2.685349 142.505341,2.535980 142.144867,2.270203 141.879074C2.004410 141.613297,1.643936 141.463928,1.268021 141.463928C0.892105 141.463928,0.531631 141.613297,0.265839 141.879074C0.000061 142.144867,-0.149307 142.505341,-0.149307 142.881256C-0.149307 143.257172,0.000061 143.617645,0.265839 143.883438C0.531631 144.149216,0.892105 144.298584,1.268021 144.298584C1.643936 144.298584,2.004410 144.149216,2.270203 143.883438C2.535980 143.617645,2.685349 143.257172,2.685349 142.881256Z" style="fill: rgb(0.000000%,0.000000%,0.000000%);stroke: none;"></path>
  <path d="M1.268021 142.881256L143.115295 1.268021" style="stroke:rgb(0.000000%,0.000000%,0.000000%); stroke-width: 0.500000;stroke-linecap: round;stroke-linejoin: round;stroke-miterlimit: 10.000000;fill: none;"></path>
  <path d="M144.532623 1.268021C144.532623 0.892105,144.383255 0.531631,144.117477 0.265839C143.851685 0.000061,143.491211 -0.149307,143.115295 -0.149307C142.739380 -0.149307,142.378906 0.000061,142.113113 0.265839C141.847336 0.531631,141.697968 0.892105,141.697968 1.268021C141.697968 1.643936,141.847336 2.004410,142.113113 2.270203C142.378906 2.535980,142.739380 2.685349,143.115295 2.685349C143.491211 2.685349,143.851685 2.535980,144.117477 2.270203C144.383255 2.004410,144.532623 1.643936,144.532623 1.268021Z" style="fill: rgb(0.000000%,0.000000%,0.000000%);stroke: none;"></path>
  <path d="M143.115295 1.268021L284.731979 143.110138" style="stroke:rgb(0.000000%,0.000000%,0.000000%); stroke-width: 0.500000;stroke-linecap: round;stroke-linejoin: round;stroke-miterlimit: 10.000000;fill: none;"></path>
  <path d="M286.149307 143.110138C286.149307 142.734222,285.999939 142.373749,285.734161 142.107956C285.468369 141.842178,285.107895 141.692810,284.731979 141.692810C284.356064 141.692810,283.995590 141.842178,283.729797 142.107956C283.464020 142.373749,283.314651 142.734222,283.314651 143.110138C283.314651 143.486053,283.464020 143.846527,283.729797 144.112320C283.995590 144.378098,284.356064 144.527466,284.731979 144.527466C285.107895 144.527466,285.468369 144.378098,285.734161 144.112320C285.999939 143.846527,286.149307 143.486053,286.149307 143.110138Z" style="fill: rgb(0.000000%,0.000000%,0.000000%);stroke: none;"></path>
  <path d="M284.731979 143.110138L142.889862 284.731979" style="stroke:rgb(0.000000%,0.000000%,0.000000%); stroke-width: 0.500000;stroke-linecap: round;stroke-linejoin: round;stroke-miterlimit: 10.000000;fill: none;"></path>
  <path d="M144.307190 284.731979C144.307190 284.356064,144.157822 283.995590,143.892044 283.729797C143.626251 283.464020,143.265778 283.314651,142.889862 283.314651C142.513947 283.314651,142.153473 283.464020,141.887680 283.729797C141.621902 283.995590,141.472534 284.356064,141.472534 284.731979C141.472534 285.107895,141.621902 285.468369,141.887680 285.734161C142.153473 285.999939,142.513947 286.149307,142.889862 286.149307C143.265778 286.149307,143.626251 285.999939,143.892044 285.734161C144.157822 285.468369,144.307190 285.107895,144.307190 284.731979Z" style="fill: rgb(0.000000%,0.000000%,0.000000%);stroke: none;"></path>
  <path d="M142.889862 284.731979L1.268021 142.884705" style="stroke:rgb(0.000000%,0.000000%,0.000000%); stroke-width: 0.500000;stroke-linecap: round;stroke-linejoin: round;stroke-miterlimit: 10.000000;fill: none;"></path>
  <path d="M2.685349 142.884705C2.685349 142.508789,2.535980 142.148315,2.270203 141.882523C2.004410 141.616745,1.643936 141.467377,1.268021 141.467377C0.892105 141.467377,0.531631 141.616745,0.265839 141.882523C0.000061 142.148315,-0.149307 142.508789,-0.149307 142.884705C-0.149307 143.260620,0.000061 143.621094,0.265839 143.886887C0.531631 144.152664,0.892105 144.302032,1.268021 144.302032C1.643936 144.302032,2.004410 144.152664,2.270203 143.886887C2.535980 143.621094,2.685349 143.260620,2.685349 142.884705Z" style="fill: rgb(0.000000%,0.000000%,0.000000%);stroke: none;"></path>
  <path d="M1.268021 142.884705L143.118744 1.268021" style="stroke:rgb(0.000000%,0.000000%,0.000000%); stroke-width: 0.500000;stroke-linecap: round;stroke-linejoin: round;stroke-miterlimit: 10.000000;fill: none;"></path>
  <path d="M144.536072 1.268021C144.536072 0.892105,144.386703 0.531631,144.120926 0.265839C143.855133 0.000061,143.494659 -0.149307,143.118744 -0.149307C142.742828 -0.149307,142.382355 0.000061,142.116562 0.265839C141.850784 0.531631,141.701416 0.892105,141.701416 1.268021C141.701416 1.643936,141.850784 2.004410,142.116562 2.270203C142.382355 2.535980,142.742828 2.685349,143.118744 2.685349C143.494659 2.685349,143.855133 2.535980,144.120926 2.270203C144.386703 2.004410,144.536072 1.643936,144.536072 1.268021Z" style="fill: rgb(0.000000%,0.000000%,0.000000%);stroke: none;"></path>
</svg>
