<?xml version="1.0"?>
<!-- Created by MetaPost 2.000 on 2018.06.03:1850 -->
<svg version="1.1" xmlns="http://www.w3.org/2000/svg" xmlns:xlink="http://www.w3.org/1999/xlink" width="284.353226" height="285.041199" viewBox="0 0 284.353226 285.041199">
<!-- Original BoundingBox: -142.371201 -141.982025 141.982025 143.059174 -->
  <path d="M283.732025 143.000000C283.732025 105.408661,268.796707 69.361465,242.217621 42.782379C215.638535 16.203293,179.591339 1.267975,142.000000 1.267975C104.408661 1.267975,68.361465 16.203293,41.782379 42.782379C15.203293 69.361465,0.267975 105.408661,0.267975 143.000000C0.267975 180.591339,15.203293 216.638535,41.782379 243.217621C68.361465 269.796707,104.408661 284.732025,142.000000 284.732025C179.591339 284.732025,215.638535 269.796707,242.217621 243.217621C268.796707 216.638535,283.732025 180.591339,283.732025 143.000000Z" style="stroke:rgb(0.000000%,0.000000%,0.000000%); stroke-width: 0.500000;stroke-linecap: round;stroke-linejoin: round;stroke-miterlimit: 10.000000;fill: none;"></path>
  <path d="M0.267975 143.000000L208.536835 17.858643" style="stroke:rgb(0.000000%,0.000000%,0.000000%); stroke-width: 0.500000;stroke-linecap: round;stroke-linejoin: round;stroke-miterlimit: 10.000000;fill: none;"></path>
  <path d="M209.954163 17.858643C209.954163 17.482727,209.804794 17.122253,209.539017 16.856461C209.273224 16.590683,208.912750 16.441315,208.536835 16.441315C208.160919 16.441315,207.800446 16.590683,207.534653 16.856461C207.268875 17.122253,207.119507 17.482727,207.119507 17.858643C207.119507 18.234558,207.268875 18.595032,207.534653 18.860825C207.800446 19.126602,208.160919 19.275970,208.536835 19.275970C208.912750 19.275970,209.273224 19.126602,209.539017 18.860825C209.804794 18.595032,209.954163 18.234558,209.954163 17.858643Z" style="fill: rgb(0.000000%,0.000000%,0.000000%);stroke: none;"></path>
  <path d="M208.536835 17.858643L221.257187 260.497894" style="stroke:rgb(0.000000%,0.000000%,0.000000%); stroke-width: 0.500000;stroke-linecap: round;stroke-linejoin: round;stroke-miterlimit: 10.000000;fill: none;"></path>
  <path d="M222.674515 260.497894C222.674515 260.121979,222.525146 259.761505,222.259369 259.495712C221.993576 259.229935,221.633102 259.080566,221.257187 259.080566C220.881271 259.080566,220.520798 259.229935,220.255005 259.495712C219.989227 259.761505,219.839859 260.121979,219.839859 260.497894C219.839859 260.873810,219.989227 261.234283,220.255005 261.500076C220.520798 261.765854,220.881271 261.915222,221.257187 261.915222C221.633102 261.915222,221.993576 261.765854,222.259369 261.500076C222.525146 261.234283,222.674515 260.873810,222.674515 260.497894Z" style="fill: rgb(0.000000%,0.000000%,0.000000%);stroke: none;"></path>
  <path d="M221.257187 260.497894L1.046127 157.835144" style="stroke:rgb(0.000000%,0.000000%,0.000000%); stroke-width: 0.500000;stroke-linecap: round;stroke-linejoin: round;stroke-miterlimit: 10.000000;fill: none;"></path>
  <path d="M2.463455 157.835144C2.463455 157.459229,2.314087 157.098755,2.048309 156.832962C1.782516 156.567184,1.422043 156.417816,1.046127 156.417816C0.670212 156.417816,0.309738 156.567184,0.043945 156.832962C-0.221832 157.098755,-0.371201 157.459229,-0.371201 157.835144C-0.371201 158.211060,-0.221832 158.571533,0.043945 158.837326C0.309738 159.103104,0.670212 159.252472,1.046127 159.252472C1.422043 159.252472,1.782516 159.103104,2.048309 158.837326C2.314087 158.571533,2.463455 158.211060,2.463455 157.835144Z" style="fill: rgb(0.000000%,0.000000%,0.000000%);stroke: none;"></path>
  <path d="M1.046127 157.835144L195.063553 11.577469" style="stroke:rgb(0.000000%,0.000000%,0.000000%); stroke-width: 0.500000;stroke-linecap: round;stroke-linejoin: round;stroke-miterlimit: 10.000000;fill: none;"></path>
  <path d="M196.480881 11.577469C196.480881 11.201553,196.331512 10.841080,196.065735 10.575287C195.799942 10.309509,195.439468 10.160141,195.063553 10.160141C194.687637 10.160141,194.327164 10.309509,194.061371 10.575287C193.795593 10.841080,193.646225 11.201553,193.646225 11.577469C193.646225 11.953384,193.795593 12.313858,194.061371 12.579651C194.327164 12.845428,194.687637 12.994797,195.063553 12.994797C195.439468 12.994797,195.799942 12.845428,196.065735 12.579651C196.331512 12.313858,196.480881 11.953384,196.480881 11.577469Z" style="fill: rgb(0.000000%,0.000000%,0.000000%);stroke: none;"></path>
  <path d="M195.063553 11.577469L233.117249 251.558426" style="stroke:rgb(0.000000%,0.000000%,0.000000%); stroke-width: 0.500000;stroke-linecap: round;stroke-linejoin: round;stroke-miterlimit: 10.000000;fill: none;"></path>
  <path d="M234.534576 251.558426C234.534576 251.182510,234.385208 250.822037,234.119431 250.556244C233.853638 250.290466,233.493164 250.141098,233.117249 250.141098C232.741333 250.141098,232.380859 250.290466,232.115067 250.556244C231.849289 250.822037,231.699921 251.182510,231.699921 251.558426C231.699921 251.934341,231.849289 252.294815,232.115067 252.560608C232.380859 252.826385,232.741333 252.975754,233.117249 252.975754C233.493164 252.975754,233.853638 252.826385,234.119431 252.560608C234.385208 252.294815,234.534576 251.934341,234.534576 251.558426Z" style="fill: rgb(0.000000%,0.000000%,0.000000%);stroke: none;"></path>
  <path d="M233.117249 251.558426L3.374344 172.511734" style="stroke:rgb(0.000000%,0.000000%,0.000000%); stroke-width: 0.500000;stroke-linecap: round;stroke-linejoin: round;stroke-miterlimit: 10.000000;fill: none;"></path>
  <path d="M4.791672 172.511734C4.791672 172.135818,4.642303 171.775345,4.376526 171.509552C4.110733 171.243774,3.750259 171.094406,3.374344 171.094406C2.998428 171.094406,2.637955 171.243774,2.372162 171.509552C2.106384 171.775345,1.957016 172.135818,1.957016 172.511734C1.957016 172.887650,2.106384 173.248123,2.372162 173.513916C2.637955 173.779694,2.998428 173.929062,3.374344 173.929062C3.750259 173.929062,4.110733 173.779694,4.376526 173.513916C4.642303 173.248123,4.791672 172.887650,4.791672 172.511734Z" style="fill: rgb(0.000000%,0.000000%,0.000000%);stroke: none;"></path>
  <path d="M3.374344 172.511734L180.979004 6.733719" style="stroke:rgb(0.000000%,0.000000%,0.000000%); stroke-width: 0.500000;stroke-linecap: round;stroke-linejoin: round;stroke-miterlimit: 10.000000;fill: none;"></path>
  <path d="M182.396332 6.733719C182.396332 6.357803,182.246964 5.997330,181.981186 5.731537C181.715393 5.465759,181.354919 5.316391,180.979004 5.316391C180.603088 5.316391,180.242615 5.465759,179.976822 5.731537C179.711044 5.997330,179.561676 6.357803,179.561676 6.733719C179.561676 7.109634,179.711044 7.470108,179.976822 7.735901C180.242615 8.001678,180.603088 8.151047,180.979004 8.151047C181.354919 8.151047,181.715393 8.001678,181.981186 7.735901C182.246964 7.470108,182.396332 7.109634,182.396332 6.733719Z" style="fill: rgb(0.000000%,0.000000%,0.000000%);stroke: none;"></path>
  <path d="M180.979004 6.733719L244.021942 241.380264" style="stroke:rgb(0.000000%,0.000000%,0.000000%); stroke-width: 0.500000;stroke-linecap: round;stroke-linejoin: round;stroke-miterlimit: 10.000000;fill: none;"></path>
  <path d="M245.439270 241.380264C245.439270 241.004349,245.289902 240.643875,245.024124 240.378082C244.758331 240.112305,244.397858 239.962936,244.021942 239.962936C243.646027 239.962936,243.285553 240.112305,243.019760 240.378082C242.753983 240.643875,242.604614 241.004349,242.604614 241.380264C242.604614 241.756180,242.753983 242.116653,243.019760 242.382446C243.285553 242.648224,243.646027 242.797592,244.021942 242.797592C244.397858 242.797592,244.758331 242.648224,245.024124 242.382446C245.289902 242.116653,245.439270 241.756180,245.439270 241.380264Z" style="fill: rgb(0.000000%,0.000000%,0.000000%);stroke: none;"></path>
  <path d="M244.021942 241.380264L7.235992 186.891159" style="stroke:rgb(0.000000%,0.000000%,0.000000%); stroke-width: 0.500000;stroke-linecap: round;stroke-linejoin: round;stroke-miterlimit: 10.000000;fill: none;"></path>
  <path d="M8.653320 186.891159C8.653320 186.515244,8.503952 186.154770,8.238174 185.888977C7.972382 185.623199,7.611908 185.473831,7.235992 185.473831C6.860077 185.473831,6.499603 185.623199,6.233810 185.888977C5.968033 186.154770,5.818665 186.515244,5.818665 186.891159C5.818665 187.267075,5.968033 187.627548,6.233810 187.893341C6.499603 188.159119,6.860077 188.308487,7.235992 188.308487C7.611908 188.308487,7.972382 188.159119,8.238174 187.893341C8.503952 187.627548,8.653320 187.267075,8.653320 186.891159Z" style="fill: rgb(0.000000%,0.000000%,0.000000%);stroke: none;"></path>
  <path d="M7.235992 186.891159L166.491806 3.399796" style="stroke:rgb(0.000000%,0.000000%,0.000000%); stroke-width: 0.500000;stroke-linecap: round;stroke-linejoin: round;stroke-miterlimit: 10.000000;fill: none;"></path>
  <path d="M167.909134 3.399796C167.909134 3.023880,167.759766 2.663406,167.493988 2.397614C167.228195 2.131836,166.867722 1.982468,166.491806 1.982468C166.115891 1.982468,165.755417 2.131836,165.489624 2.397614C165.223846 2.663406,165.074478 3.023880,165.074478 3.399796C165.074478 3.775711,165.223846 4.136185,165.489624 4.401978C165.755417 4.667755,166.115891 4.817123,166.491806 4.817123C166.867722 4.817123,167.228195 4.667755,167.493988 4.401978C167.759766 4.136185,167.909134 3.775711,167.909134 3.399796Z" style="fill: rgb(0.000000%,0.000000%,0.000000%);stroke: none;"></path>
  <path d="M166.491806 3.399796L253.766174 230.153183" style="stroke:rgb(0.000000%,0.000000%,0.000000%); stroke-width: 0.500000;stroke-linecap: round;stroke-linejoin: round;stroke-miterlimit: 10.000000;fill: none;"></path>
  <path d="M255.183502 230.153183C255.183502 229.777267,255.034134 229.416794,254.768356 229.151001C254.502563 228.885223,254.142090 228.735855,253.766174 228.735855C253.390259 228.735855,253.029785 228.885223,252.763992 229.151001C252.498215 229.416794,252.348846 229.777267,252.348846 230.153183C252.348846 230.529099,252.498215 230.889572,252.763992 231.155365C253.029785 231.421143,253.390259 231.570511,253.766174 231.570511C254.142090 231.570511,254.502563 231.421143,254.768356 231.155365C255.034134 230.889572,255.183502 230.529099,255.183502 230.153183Z" style="fill: rgb(0.000000%,0.000000%,0.000000%);stroke: none;"></path>
  <path d="M253.766174 230.153183L12.571487 200.756622" style="stroke:rgb(0.000000%,0.000000%,0.000000%); stroke-width: 0.500000;stroke-linecap: round;stroke-linejoin: round;stroke-miterlimit: 10.000000;fill: none;"></path>
  <path d="M13.988815 200.756622C13.988815 200.380707,13.839447 200.020233,13.573669 199.754440C13.307877 199.488663,12.947403 199.339294,12.571487 199.339294C12.195572 199.339294,11.835098 199.488663,11.569305 199.754440C11.303528 200.020233,11.154160 200.380707,11.154160 200.756622C11.154160 201.132538,11.303528 201.493011,11.569305 201.758804C11.835098 202.024582,12.195572 202.173950,12.571487 202.173950C12.947403 202.173950,13.307877 202.024582,13.573669 201.758804C13.839447 201.493011,13.988815 201.132538,13.988815 200.756622Z" style="fill: rgb(0.000000%,0.000000%,0.000000%);stroke: none;"></path>
  <path d="M12.571487 200.756622L151.768280 1.604752" style="stroke:rgb(0.000000%,0.000000%,0.000000%); stroke-width: 0.500000;stroke-linecap: round;stroke-linejoin: round;stroke-miterlimit: 10.000000;fill: none;"></path>
  <path d="M153.185608 1.604752C153.185608 1.228836,153.036240 0.868362,152.770462 0.602570C152.504669 0.336792,152.144196 0.187424,151.768280 0.187424C151.392365 0.187424,151.031891 0.336792,150.766098 0.602570C150.500320 0.868362,150.350952 1.228836,150.350952 1.604752C150.350952 1.980667,150.500320 2.341141,150.766098 2.606934C151.031891 2.872711,151.392365 3.022079,151.768280 3.022079C152.144196 3.022079,152.504669 2.872711,152.770462 2.606934C153.036240 2.341141,153.185608 1.980667,153.185608 1.604752Z" style="fill: rgb(0.000000%,0.000000%,0.000000%);stroke: none;"></path>
  <path d="M151.768280 1.604752L262.261246 217.998062" style="stroke:rgb(0.000000%,0.000000%,0.000000%); stroke-width: 0.500000;stroke-linecap: round;stroke-linejoin: round;stroke-miterlimit: 10.000000;fill: none;"></path>
  <path d="M263.678574 217.998062C263.678574 217.622147,263.529205 217.261673,263.263428 216.995880C262.997635 216.730103,262.637161 216.580734,262.261246 216.580734C261.885330 216.580734,261.524857 216.730103,261.259064 216.995880C260.993286 217.261673,260.843918 217.622147,260.843918 217.998062C260.843918 218.373978,260.993286 218.734451,261.259064 219.000244C261.524857 219.266022,261.885330 219.415390,262.261246 219.415390C262.637161 219.415390,262.997635 219.266022,263.263428 219.000244C263.529205 218.734451,263.678574 218.373978,263.678574 217.998062Z" style="fill: rgb(0.000000%,0.000000%,0.000000%);stroke: none;"></path>
  <path d="M262.261246 217.998062L19.317551 213.968338" style="stroke:rgb(0.000000%,0.000000%,0.000000%); stroke-width: 0.500000;stroke-linecap: round;stroke-linejoin: round;stroke-miterlimit: 10.000000;fill: none;"></path>
  <path d="M20.734879 213.968338C20.734879 213.592422,20.585510 213.231949,20.319733 212.966156C20.053940 212.700378,19.693466 212.551010,19.317551 212.551010C18.941635 212.551010,18.581161 212.700378,18.315369 212.966156C18.049591 213.231949,17.900223 213.592422,17.900223 213.968338C17.900223 214.344254,18.049591 214.704727,18.315369 214.970520C18.581161 215.236298,18.941635 215.385666,19.317551 215.385666C19.693466 215.385666,20.053940 215.236298,20.319733 214.970520C20.585510 214.704727,20.734879 214.344254,20.734879 213.968338Z" style="fill: rgb(0.000000%,0.000000%,0.000000%);stroke: none;"></path>
  <path d="M19.317551 213.968338L136.942337 1.358154" style="stroke:rgb(0.000000%,0.000000%,0.000000%); stroke-width: 0.500000;stroke-linecap: round;stroke-linejoin: round;stroke-miterlimit: 10.000000;fill: none;"></path>
  <path d="M138.359665 1.358154C138.359665 0.982239,138.210297 0.621765,137.944519 0.355972C137.678726 0.090195,137.318253 -0.059174,136.942337 -0.059174C136.566422 -0.059174,136.205948 0.090195,135.940155 0.355972C135.674377 0.621765,135.525009 0.982239,135.525009 1.358154C135.525009 1.734070,135.674377 2.094543,135.940155 2.360336C136.205948 2.626114,136.566422 2.775482,136.942337 2.775482C137.318253 2.775482,137.678726 2.626114,137.944519 2.360336C138.210297 2.094543,138.359665 1.734070,138.359665 1.358154Z" style="fill: rgb(0.000000%,0.000000%,0.000000%);stroke: none;"></path>
  <path d="M136.942337 1.358154L269.425903 205.049759" style="stroke:rgb(0.000000%,0.000000%,0.000000%); stroke-width: 0.500000;stroke-linecap: round;stroke-linejoin: round;stroke-miterlimit: 10.000000;fill: none;"></path>
  <path d="M270.843231 205.049759C270.843231 204.673843,270.693863 204.313370,270.428085 204.047577C270.162292 203.781799,269.801819 203.632431,269.425903 203.632431C269.049988 203.632431,268.689514 203.781799,268.423721 204.047577C268.157944 204.313370,268.008575 204.673843,268.008575 205.049759C268.008575 205.425674,268.157944 205.786148,268.423721 206.051941C268.689514 206.317719,269.049988 206.467087,269.425903 206.467087C269.801819 206.467087,270.162292 206.317719,270.428085 206.051941C270.693863 205.786148,270.843231 205.425674,270.843231 205.049759Z" style="fill: rgb(0.000000%,0.000000%,0.000000%);stroke: none;"></path>
  <path d="M269.425903 205.049759L27.371536 226.353027" style="stroke:rgb(0.000000%,0.000000%,0.000000%); stroke-width: 0.500000;stroke-linecap: round;stroke-linejoin: round;stroke-miterlimit: 10.000000;fill: none;"></path>
  <path d="M28.788864 226.353027C28.788864 225.977112,28.639496 225.616638,28.373718 225.350845C28.107925 225.085068,27.747452 224.935699,27.371536 224.935699C26.995621 224.935699,26.635147 225.085068,26.369354 225.350845C26.103577 225.616638,25.954208 225.977112,25.954208 226.353027C25.954208 226.728943,26.103577 227.089417,26.369354 227.355209C26.635147 227.620987,26.995621 227.770355,27.371536 227.770355C27.747452 227.770355,28.107925 227.620987,28.373718 227.355209C28.639496 227.089417,28.788864 226.728943,28.788864 226.353027Z" style="fill: rgb(0.000000%,0.000000%,0.000000%);stroke: none;"></path>
  <path d="M27.371536 226.353027L122.239655 2.651825" style="stroke:rgb(0.000000%,0.000000%,0.000000%); stroke-width: 0.500000;stroke-linecap: round;stroke-linejoin: round;stroke-miterlimit: 10.000000;fill: none;"></path>
  <path d="M123.656982 2.651825C123.656982 2.275909,123.507614 1.915436,123.241837 1.649643C122.976044 1.383865,122.615570 1.234497,122.239655 1.234497C121.863739 1.234497,121.503265 1.383865,121.237473 1.649643C120.971695 1.915436,120.822327 2.275909,120.822327 2.651825C120.822327 3.027740,120.971695 3.388214,121.237473 3.654007C121.503265 3.919785,121.863739 4.069153,122.239655 4.069153C122.615570 4.069153,122.976044 3.919785,123.241837 3.654007C123.507614 3.388214,123.656982 3.027740,123.656982 2.651825Z" style="fill: rgb(0.000000%,0.000000%,0.000000%);stroke: none;"></path>
  <path d="M122.239655 2.651825L275.187256 191.464905" style="stroke:rgb(0.000000%,0.000000%,0.000000%); stroke-width: 0.500000;stroke-linecap: round;stroke-linejoin: round;stroke-miterlimit: 10.000000;fill: none;"></path>
  <path d="M276.604584 191.464905C276.604584 191.088989,276.455215 190.728516,276.189438 190.462723C275.923645 190.196945,275.563171 190.047577,275.187256 190.047577C274.811340 190.047577,274.450867 190.196945,274.185074 190.462723C273.919296 190.728516,273.769928 191.088989,273.769928 191.464905C273.769928 191.840820,273.919296 192.201294,274.185074 192.467087C274.450867 192.732864,274.811340 192.882233,275.187256 192.882233C275.563171 192.882233,275.923645 192.732864,276.189438 192.467087C276.455215 192.201294,276.604584 191.840820,276.604584 191.464905Z" style="fill: rgb(0.000000%,0.000000%,0.000000%);stroke: none;"></path>
  <path d="M275.187256 191.464905L36.644623 237.802170" style="stroke:rgb(0.000000%,0.000000%,0.000000%); stroke-width: 0.500000;stroke-linecap: round;stroke-linejoin: round;stroke-miterlimit: 10.000000;fill: none;"></path>
  <path d="M38.061951 237.802170C38.061951 237.426254,37.912582 237.065781,37.646805 236.799988C37.381012 236.534210,37.020538 236.384842,36.644623 236.384842C36.268707 236.384842,35.908234 236.534210,35.642441 236.799988C35.376663 237.065781,35.227295 237.426254,35.227295 237.802170C35.227295 238.178085,35.376663 238.538559,35.642441 238.804352C35.908234 239.070129,36.268707 239.219498,36.644623 239.219498C37.020538 239.219498,37.381012 239.070129,37.646805 238.804352C37.912582 238.538559,38.061951 238.178085,38.061951 237.802170Z" style="fill: rgb(0.000000%,0.000000%,0.000000%);stroke: none;"></path>
</svg>
