<?xml version="1.0"?>
<!-- Created by MetaPost 2.000 on 2018.06.03:1849 -->
<svg version="1.1" xmlns="http://www.w3.org/2000/svg" xmlns:xlink="http://www.w3.org/1999/xlink" width="285.131378" height="283.964050" viewBox="0 0 285.131378 283.964050">
<!-- Original BoundingBox: -143.149353 -141.982025 141.982025 141.982025 -->
  <path d="M284.732025 141.000000C284.732025 103.408661,269.796707 67.361465,243.217621 40.782379C216.638535 14.203293,180.591339 -0.732025,143.000000 -0.732025C105.408661 -0.732025,69.361465 14.203293,42.782379 40.782379C16.203293 67.361465,1.267975 103.408661,1.267975 141.000000C1.267975 178.591339,16.203293 214.638535,42.782379 241.217621C69.361465 267.796707,105.408661 282.732025,143.000000 282.732025C180.591339 282.732025,216.638535 267.796707,243.217621 241.217621C269.796707 214.638535,284.732025 178.591339,284.732025 141.000000Z" style="stroke:rgb(0.000000%,0.000000%,0.000000%); stroke-width: 0.500000;stroke-linecap: round;stroke-linejoin: round;stroke-miterlimit: 10.000000;fill: none;"></path>
  <path d="M1.267975 141.000000L213.864380 18.257446" style="stroke:rgb(0.000000%,0.000000%,0.000000%); stroke-width: 0.500000;stroke-linecap: round;stroke-linejoin: round;stroke-miterlimit: 10.000000;fill: none;"></path>
  <path d="M215.281708 18.257446C215.281708 17.881531,215.132339 17.521057,214.866562 17.255264C214.600769 16.989487,214.240295 16.840118,213.864380 16.840118C213.488464 16.840118,213.127991 16.989487,212.862198 17.255264C212.596420 17.521057,212.447052 17.881531,212.447052 18.257446C212.447052 18.633362,212.596420 18.993835,212.862198 19.259628C213.127991 19.525406,213.488464 19.674774,213.864380 19.674774C214.240295 19.674774,214.600769 19.525406,214.866562 19.259628C215.132339 18.993835,215.281708 18.633362,215.281708 18.257446Z" style="fill: rgb(0.000000%,0.000000%,0.000000%);stroke: none;"></path>
  <path d="M213.864380 18.257446L213.864380 263.742554" style="stroke:rgb(0.000000%,0.000000%,0.000000%); stroke-width: 0.500000;stroke-linecap: round;stroke-linejoin: round;stroke-miterlimit: 10.000000;fill: none;"></path>
  <path d="M215.281708 263.742554C215.281708 263.366638,215.132339 263.006165,214.866562 262.740372C214.600769 262.474594,214.240295 262.325226,213.864380 262.325226C213.488464 262.325226,213.127991 262.474594,212.862198 262.740372C212.596420 263.006165,212.447052 263.366638,212.447052 263.742554C212.447052 264.118469,212.596420 264.478943,212.862198 264.744736C213.127991 265.010513,213.488464 265.159882,213.864380 265.159882C214.240295 265.159882,214.600769 265.010513,214.866562 264.744736C215.132339 264.478943,215.281708 264.118469,215.281708 263.742554Z" style="fill: rgb(0.000000%,0.000000%,0.000000%);stroke: none;"></path>
  <path d="M213.864380 263.742554L1.267975 141.000000" style="stroke:rgb(0.000000%,0.000000%,0.000000%); stroke-width: 0.500000;stroke-linecap: round;stroke-linejoin: round;stroke-miterlimit: 10.000000;fill: none;"></path>
  <path d="M2.685303 141.000000C2.685303 140.624084,2.535934 140.263611,2.270157 139.997818C2.004364 139.732040,1.643890 139.582672,1.267975 139.582672C0.892059 139.582672,0.531586 139.732040,0.265793 139.997818C0.000015 140.263611,-0.149353 140.624084,-0.149353 141.000000C-0.149353 141.375916,0.000015 141.736389,0.265793 142.002182C0.531586 142.267960,0.892059 142.417328,1.267975 142.417328C1.643890 142.417328,2.004364 142.267960,2.270157 142.002182C2.535934 141.736389,2.685303 141.375916,2.685303 141.000000Z" style="fill: rgb(0.000000%,0.000000%,0.000000%);stroke: none;"></path>
  <path d="M1.267975 141.000000L213.864380 18.257446" style="stroke:rgb(0.000000%,0.000000%,0.000000%); stroke-width: 0.500000;stroke-linecap: round;stroke-linejoin: round;stroke-miterlimit: 10.000000;fill: none;"></path>
  <path d="M215.281708 18.257446C215.281708 17.881531,215.132339 17.521057,214.866562 17.255264C214.600769 16.989487,214.240295 16.840118,213.864380 16.840118C213.488464 16.840118,213.127991 16.989487,212.862198 17.255264C212.596420 17.521057,212.447052 17.881531,212.447052 18.257446C212.447052 18.633362,212.596420 18.993835,212.862198 19.259628C213.127991 19.525406,213.488464 19.674774,213.864380 19.674774C214.240295 19.674774,214.600769 19.525406,214.866562 19.259628C215.132339 18.993835,215.281708 18.633362,215.281708 18.257446Z" style="fill: rgb(0.000000%,0.000000%,0.000000%);stroke: none;"></path>
  <path d="M213.864380 18.257446L213.864380 263.742554" style="stroke:rgb(0.000000%,0.000000%,0.000000%); stroke-width: 0.500000;stroke-linecap: round;stroke-linejoin: round;stroke-miterlimit: 10.000000;fill: none;"></path>
  <path d="M215.281708 263.742554C215.281708 263.366638,215.132339 263.006165,214.866562 262.740372C214.600769 262.474594,214.240295 262.325226,213.864380 262.325226C213.488464 262.325226,213.127991 262.474594,212.862198 262.740372C212.596420 263.006165,212.447052 263.366638,212.447052 263.742554C212.447052 264.118469,212.596420 264.478943,212.862198 264.744736C213.127991 265.010513,213.488464 265.159882,213.864380 265.159882C214.240295 265.159882,214.600769 265.010513,214.866562 264.744736C215.132339 264.478943,215.281708 264.118469,215.281708 263.742554Z" style="fill: rgb(0.000000%,0.000000%,0.000000%);stroke: none;"></path>
  <path d="M213.864380 263.742554L1.267975 141.000000" style="stroke:rgb(0.000000%,0.000000%,0.000000%); stroke-width: 0.500000;stroke-linecap: round;stroke-linejoin: round;stroke-miterlimit: 10.000000;fill: none;"></path>
  <path d="M2.685303 141.000000C2.685303 140.624084,2.535934 140.263611,2.270157 139.997818C2.004364 139.732040,1.643890 139.582672,1.267975 139.582672C0.892059 139.582672,0.531586 139.732040,0.265793 139.997818C0.000015 140.263611,-0.149353 140.624084,-0.149353 141.000000C-0.149353 141.375916,0.000015 141.736389,0.265793 142.002182C0.531586 142.267960,0.892059 142.417328,1.267975 142.417328C1.643890 142.417328,2.004364 142.267960,2.270157 142.002182C2.535934 141.736389,2.685303 141.375916,2.685303 141.000000Z" style="fill: rgb(0.000000%,0.000000%,0.000000%);stroke: none;"></path>
  <path d="M1.267975 141.000000L213.864380 18.257446" style="stroke:rgb(0.000000%,0.000000%,0.000000%); stroke-width: 0.500000;stroke-linecap: round;stroke-linejoin: round;stroke-miterlimit: 10.000000;fill: none;"></path>
  <path d="M215.281708 18.257446C215.281708 17.881531,215.132339 17.521057,214.866562 17.255264C214.600769 16.989487,214.240295 16.840118,213.864380 16.840118C213.488464 16.840118,213.127991 16.989487,212.862198 17.255264C212.596420 17.521057,212.447052 17.881531,212.447052 18.257446C212.447052 18.633362,212.596420 18.993835,212.862198 19.259628C213.127991 19.525406,213.488464 19.674774,213.864380 19.674774C214.240295 19.674774,214.600769 19.525406,214.866562 19.259628C215.132339 18.993835,215.281708 18.633362,215.281708 18.257446Z" style="fill: rgb(0.000000%,0.000000%,0.000000%);stroke: none;"></path>
  <path d="M213.864380 18.257446L213.864380 263.742554" style="stroke:rgb(0.000000%,0.000000%,0.000000%); stroke-width: 0.500000;stroke-linecap: round;stroke-linejoin: round;stroke-miterlimit: 10.000000;fill: none;"></path>
  <path d="M215.281708 263.742554C215.281708 263.366638,215.132339 263.006165,214.866562 262.740372C214.600769 262.474594,214.240295 262.325226,213.864380 262.325226C213.488464 262.325226,213.127991 262.474594,212.862198 262.740372C212.596420 263.006165,212.447052 263.366638,212.447052 263.742554C212.447052 264.118469,212.596420 264.478943,212.862198 264.744736C213.127991 265.010513,213.488464 265.159882,213.864380 265.159882C214.240295 265.159882,214.600769 265.010513,214.866562 264.744736C215.132339 264.478943,215.281708 264.118469,215.281708 263.742554Z" style="fill: rgb(0.000000%,0.000000%,0.000000%);stroke: none;"></path>
  <path d="M213.864380 263.742554L1.267975 141.000000" style="stroke:rgb(0.000000%,0.000000%,0.000000%); stroke-width: 0.500000;stroke-linecap: round;stroke-linejoin: round;stroke-miterlimit: 10.000000;fill: none;"></path>
  <path d="M2.685303 141.000000C2.685303 140.624084,2.535934 140.263611,2.270157 139.997818C2.004364 139.732040,1.643890 139.582672,1.267975 139.582672C0.892059 139.582672,0.531586 139.732040,0.265793 139.997818C0.000015 140.263611,-0.149353 140.624084,-0.149353 141.000000C-0.149353 141.375916,0.000015 141.736389,0.265793 142.002182C0.531586 142.267960,0.892059 142.417328,1.267975 142.417328C1.643890 142.417328,2.004364 142.267960,2.270157 142.002182C2.535934 141.736389,2.685303 141.375916,2.685303 141.000000Z" style="fill: rgb(0.000000%,0.000000%,0.000000%);stroke: none;"></path>
  <path d="M1.267975 141.000000L213.864380 18.257446" style="stroke:rgb(0.000000%,0.000000%,0.000000%); stroke-width: 0.500000;stroke-linecap: round;stroke-linejoin: round;stroke-miterlimit: 10.000000;fill: none;"></path>
  <path d="M215.281708 18.257446C215.281708 17.881531,215.132339 17.521057,214.866562 17.255264C214.600769 16.989487,214.240295 16.840118,213.864380 16.840118C213.488464 16.840118,213.127991 16.989487,212.862198 17.255264C212.596420 17.521057,212.447052 17.881531,212.447052 18.257446C212.447052 18.633362,212.596420 18.993835,212.862198 19.259628C213.127991 19.525406,213.488464 19.674774,213.864380 19.674774C214.240295 19.674774,214.600769 19.525406,214.866562 19.259628C215.132339 18.993835,215.281708 18.633362,215.281708 18.257446Z" style="fill: rgb(0.000000%,0.000000%,0.000000%);stroke: none;"></path>
  <path d="M213.864380 18.257446L213.864380 263.742554" style="stroke:rgb(0.000000%,0.000000%,0.000000%); stroke-width: 0.500000;stroke-linecap: round;stroke-linejoin: round;stroke-miterlimit: 10.000000;fill: none;"></path>
  <path d="M215.281708 263.742554C215.281708 263.366638,215.132339 263.006165,214.866562 262.740372C214.600769 262.474594,214.240295 262.325226,213.864380 262.325226C213.488464 262.325226,213.127991 262.474594,212.862198 262.740372C212.596420 263.006165,212.447052 263.366638,212.447052 263.742554C212.447052 264.118469,212.596420 264.478943,212.862198 264.744736C213.127991 265.010513,213.488464 265.159882,213.864380 265.159882C214.240295 265.159882,214.600769 265.010513,214.866562 264.744736C215.132339 264.478943,215.281708 264.118469,215.281708 263.742554Z" style="fill: rgb(0.000000%,0.000000%,0.000000%);stroke: none;"></path>
  <path d="M213.864380 263.742554L1.267975 141.000000" style="stroke:rgb(0.000000%,0.000000%,0.000000%); stroke-width: 0.500000;stroke-linecap: round;stroke-linejoin: round;stroke-miterlimit: 10.000000;fill: none;"></path>
  <path d="M2.685303 141.000000C2.685303 140.624084,2.535934 140.263611,2.270157 139.997818C2.004364 139.732040,1.643890 139.582672,1.267975 139.582672C0.892059 139.582672,0.531586 139.732040,0.265793 139.997818C0.000015 140.263611,-0.149353 140.624084,-0.149353 141.000000C-0.149353 141.375916,0.000015 141.736389,0.265793 142.002182C0.531586 142.267960,0.892059 142.417328,1.267975 142.417328C1.643890 142.417328,2.004364 142.267960,2.270157 142.002182C2.535934 141.736389,2.685303 141.375916,2.685303 141.000000Z" style="fill: rgb(0.000000%,0.000000%,0.000000%);stroke: none;"></path>
  <path d="M1.267975 141.000000L213.864380 18.257446" style="stroke:rgb(0.000000%,0.000000%,0.000000%); stroke-width: 0.500000;stroke-linecap: round;stroke-linejoin: round;stroke-miterlimit: 10.000000;fill: none;"></path>
  <path d="M215.281708 18.257446C215.281708 17.881531,215.132339 17.521057,214.866562 17.255264C214.600769 16.989487,214.240295 16.840118,213.864380 16.840118C213.488464 16.840118,213.127991 16.989487,212.862198 17.255264C212.596420 17.521057,212.447052 17.881531,212.447052 18.257446C212.447052 18.633362,212.596420 18.993835,212.862198 19.259628C213.127991 19.525406,213.488464 19.674774,213.864380 19.674774C214.240295 19.674774,214.600769 19.525406,214.866562 19.259628C215.132339 18.993835,215.281708 18.633362,215.281708 18.257446Z" style="fill: rgb(0.000000%,0.000000%,0.000000%);stroke: none;"></path>
  <path d="M213.864380 18.257446L213.864380 263.742554" style="stroke:rgb(0.000000%,0.000000%,0.000000%); stroke-width: 0.500000;stroke-linecap: round;stroke-linejoin: round;stroke-miterlimit: 10.000000;fill: none;"></path>
  <path d="M215.281708 263.742554C215.281708 263.366638,215.132339 263.006165,214.866562 262.740372C214.600769 262.474594,214.240295 262.325226,213.864380 262.325226C213.488464 262.325226,213.127991 262.474594,212.862198 262.740372C212.596420 263.006165,212.447052 263.366638,212.447052 263.742554C212.447052 264.118469,212.596420 264.478943,212.862198 264.744736C213.127991 265.010513,213.488464 265.159882,213.864380 265.159882C214.240295 265.159882,214.600769 265.010513,214.866562 264.744736C215.132339 264.478943,215.281708 264.118469,215.281708 263.742554Z" style="fill: rgb(0.000000%,0.000000%,0.000000%);stroke: none;"></path>
  <path d="M213.864380 263.742554L1.267975 141.000000" style="stroke:rgb(0.000000%,0.000000%,0.000000%); stroke-width: 0.500000;stroke-linecap: round;stroke-linejoin: round;stroke-miterlimit: 10.000000;fill: none;"></path>
  <path d="M2.685303 141.000000C2.685303 140.624084,2.535934 140.263611,2.270157 139.997818C2.004364 139.732040,1.643890 139.582672,1.267975 139.582672C0.892059 139.582672,0.531586 139.732040,0.265793 139.997818C0.000015 140.263611,-0.149353 140.624084,-0.149353 141.000000C-0.149353 141.375916,0.000015 141.736389,0.265793 142.002182C0.531586 142.267960,0.892059 142.417328,1.267975 142.417328C1.643890 142.417328,2.004364 142.267960,2.270157 142.002182C2.535934 141.736389,2.685303 141.375916,2.685303 141.000000Z" style="fill: rgb(0.000000%,0.000000%,0.000000%);stroke: none;"></path>
  <path d="M1.267975 141.000000L213.864380 18.257446" style="stroke:rgb(0.000000%,0.000000%,0.000000%); stroke-width: 0.500000;stroke-linecap: round;stroke-linejoin: round;stroke-miterlimit: 10.000000;fill: none;"></path>
  <path d="M215.281708 18.257446C215.281708 17.881531,215.132339 17.521057,214.866562 17.255264C214.600769 16.989487,214.240295 16.840118,213.864380 16.840118C213.488464 16.840118,213.127991 16.989487,212.862198 17.255264C212.596420 17.521057,212.447052 17.881531,212.447052 18.257446C212.447052 18.633362,212.596420 18.993835,212.862198 19.259628C213.127991 19.525406,213.488464 19.674774,213.864380 19.674774C214.240295 19.674774,214.600769 19.525406,214.866562 19.259628C215.132339 18.993835,215.281708 18.633362,215.281708 18.257446Z" style="fill: rgb(0.000000%,0.000000%,0.000000%);stroke: none;"></path>
  <path d="M213.864380 18.257446L213.864380 263.742554" style="stroke:rgb(0.000000%,0.000000%,0.000000%); stroke-width: 0.500000;stroke-linecap: round;stroke-linejoin: round;stroke-miterlimit: 10.000000;fill: none;"></path>
  <path d="M215.281708 263.742554C215.281708 263.366638,215.132339 263.006165,214.866562 262.740372C214.600769 262.474594,214.240295 262.325226,213.864380 262.325226C213.488464 262.325226,213.127991 262.474594,212.862198 262.740372C212.596420 263.006165,212.447052 263.366638,212.447052 263.742554C212.447052 264.118469,212.596420 264.478943,212.862198 264.744736C213.127991 265.010513,213.488464 265.159882,213.864380 265.159882C214.240295 265.159882,214.600769 265.010513,214.866562 264.744736C215.132339 264.478943,215.281708 264.118469,215.281708 263.742554Z" style="fill: rgb(0.000000%,0.000000%,0.000000%);stroke: none;"></path>
  <path d="M213.864380 263.742554L1.267975 141.000000" style="stroke:rgb(0.000000%,0.000000%,0.000000%); stroke-width: 0.500000;stroke-linecap: round;stroke-linejoin: round;stroke-miterlimit: 10.000000;fill: none;"></path>
  <path d="M2.685303 141.000000C2.685303 140.624084,2.535934 140.263611,2.270157 139.997818C2.004364 139.732040,1.643890 139.582672,1.267975 139.582672C0.892059 139.582672,0.531586 139.732040,0.265793 139.997818C0.000015 140.263611,-0.149353 140.624084,-0.149353 141.000000C-0.149353 141.375916,0.000015 141.736389,0.265793 142.002182C0.531586 142.267960,0.892059 142.417328,1.267975 142.417328C1.643890 142.417328,2.004364 142.267960,2.270157 142.002182C2.535934 141.736389,2.685303 141.375916,2.685303 141.000000Z" style="fill: rgb(0.000000%,0.000000%,0.000000%);stroke: none;"></path>
  <path d="M1.267975 141.000000L213.864380 18.257446" style="stroke:rgb(0.000000%,0.000000%,0.000000%); stroke-width: 0.500000;stroke-linecap: round;stroke-linejoin: round;stroke-miterlimit: 10.000000;fill: none;"></path>
  <path d="M215.281708 18.257446C215.281708 17.881531,215.132339 17.521057,214.866562 17.255264C214.600769 16.989487,214.240295 16.840118,213.864380 16.840118C213.488464 16.840118,213.127991 16.989487,212.862198 17.255264C212.596420 17.521057,212.447052 17.881531,212.447052 18.257446C212.447052 18.633362,212.596420 18.993835,212.862198 19.259628C213.127991 19.525406,213.488464 19.674774,213.864380 19.674774C214.240295 19.674774,214.600769 19.525406,214.866562 19.259628C215.132339 18.993835,215.281708 18.633362,215.281708 18.257446Z" style="fill: rgb(0.000000%,0.000000%,0.000000%);stroke: none;"></path>
  <path d="M213.864380 18.257446L213.864380 263.742554" style="stroke:rgb(0.000000%,0.000000%,0.000000%); stroke-width: 0.500000;stroke-linecap: round;stroke-linejoin: round;stroke-miterlimit: 10.000000;fill: none;"></path>
  <path d="M215.281708 263.742554C215.281708 263.366638,215.132339 263.006165,214.866562 262.740372C214.600769 262.474594,214.240295 262.325226,213.864380 262.325226C213.488464 262.325226,213.127991 262.474594,212.862198 262.740372C212.596420 263.006165,212.447052 263.366638,212.447052 263.742554C212.447052 264.118469,212.596420 264.478943,212.862198 264.744736C213.127991 265.010513,213.488464 265.159882,213.864380 265.159882C214.240295 265.159882,214.600769 265.010513,214.866562 264.744736C215.132339 264.478943,215.281708 264.118469,215.281708 263.742554Z" style="fill: rgb(0.000000%,0.000000%,0.000000%);stroke: none;"></path>
  <path d="M213.864380 263.742554L1.267975 141.000000" style="stroke:rgb(0.000000%,0.000000%,0.000000%); stroke-width: 0.500000;stroke-linecap: round;stroke-linejoin: round;stroke-miterlimit: 10.000000;fill: none;"></path>
  <path d="M2.685303 141.000000C2.685303 140.624084,2.535934 140.263611,2.270157 139.997818C2.004364 139.732040,1.643890 139.582672,1.267975 139.582672C0.892059 139.582672,0.531586 139.732040,0.265793 139.997818C0.000015 140.263611,-0.149353 140.624084,-0.149353 141.000000C-0.149353 141.375916,0.000015 141.736389,0.265793 142.002182C0.531586 142.267960,0.892059 142.417328,1.267975 142.417328C1.643890 142.417328,2.004364 142.267960,2.270157 142.002182C2.535934 141.736389,2.685303 141.375916,2.685303 141.000000Z" style="fill: rgb(0.000000%,0.000000%,0.000000%);stroke: none;"></path>
</svg>
