<?xml version="1.0" encoding="UTF-8" standalone="no"?>
<svg
   xmlns:dc="http://purl.org/dc/elements/1.1/"
   xmlns:cc="http://creativecommons.org/ns#"
   xmlns:rdf="http://www.w3.org/1999/02/22-rdf-syntax-ns#"
   xmlns:svg="http://www.w3.org/2000/svg"
   xmlns="http://www.w3.org/2000/svg"
   xmlns:sodipodi="http://sodipodi.sourceforge.net/DTD/sodipodi-0.dtd"
   xmlns:inkscape="http://www.inkscape.org/namespaces/inkscape"
   version="1.1"
   width="1270"
   height="853"
   id="svg89"
   sodipodi:docname="irra.svg"
   inkscape:version="0.92.4 5da689c313, 2019-01-14">
  <metadata
     id="metadata93">
    <rdf:RDF>
      <cc:Work
         rdf:about="">
        <dc:format>image/svg+xml</dc:format>
        <dc:type
           rdf:resource="http://purl.org/dc/dcmitype/StillImage" />
        <dc:title></dc:title>
      </cc:Work>
    </rdf:RDF>
  </metadata>
  <sodipodi:namedview
     pagecolor="#ffffff"
     bordercolor="#666666"
     borderopacity="1"
     objecttolerance="10"
     gridtolerance="10"
     guidetolerance="10"
     inkscape:pageopacity="0"
     inkscape:pageshadow="2"
     inkscape:window-width="1920"
     inkscape:window-height="1040"
     id="namedview91"
     showgrid="false"
     inkscape:zoom="0.53228345"
     inkscape:cx="300.30926"
     inkscape:cy="267.76476"
     inkscape:window-x="0"
     inkscape:window-y="40"
     inkscape:window-maximized="0"
     inkscape:current-layer="svg89" />
  <defs
     id="defs5">
    <clipPath
       id="tyBmbXDgcTHZ">
      <path
         d="M 0,0 H 1270 V 853 H 0 Z"
         id="path2"
         inkscape:connector-curvature="0"
         style="fill:none;stroke:none" />
    </clipPath>
  </defs>
  <g
     id="g231"
     transform="matrix(1.3683357,0,0,1.3683357,-80.414301,-217.00748)">
    <path
       style="fill:none;stroke:#000000;stroke-width:2.5;stroke-linecap:round;stroke-linejoin:round;stroke-miterlimit:10;stroke-opacity:0.69803922;paint-order:fill stroke markers"
       inkscape:connector-curvature="0"
       id="path9"
       stroke-miterlimit="10"
       d="M 244.21998,721.37041 H 750.27416" />
    <path
       style="fill:none;stroke:#000000;stroke-width:2.5;stroke-linecap:round;stroke-linejoin:round;stroke-miterlimit:10;stroke-opacity:0.69803922;paint-order:fill stroke markers"
       inkscape:connector-curvature="0"
       id="path11"
       stroke-miterlimit="10"
       d="M 750.27416,721.37041 V 215.31623" />
    <path
       style="fill:none;stroke:#000000;stroke-width:2.5;stroke-linecap:round;stroke-linejoin:round;stroke-miterlimit:10;stroke-opacity:0.69803922;paint-order:fill stroke markers"
       inkscape:connector-curvature="0"
       id="path13"
       stroke-miterlimit="10"
       d="M 750.27416,215.31623 H 244.21998" />
    <path
       style="fill:none;stroke:#000000;stroke-width:2.5;stroke-linecap:round;stroke-linejoin:round;stroke-miterlimit:10;stroke-opacity:0.69803922;paint-order:fill stroke markers"
       inkscape:connector-curvature="0"
       id="path15"
       stroke-miterlimit="10"
       d="M 244.21998,215.31623 V 721.37041" />
    <path
       style="fill:none;stroke:#000000;stroke-width:2.5;stroke-linecap:round;stroke-linejoin:round;stroke-miterlimit:10;stroke-opacity:0.69803922;paint-order:fill stroke markers"
       inkscape:connector-curvature="0"
       id="path17"
       stroke-miterlimit="10"
       d="M 244.21998,215.31623 750.27416,721.37041" />
    <path
       style="fill:none;stroke:#000000;stroke-width:2.5;stroke-linecap:round;stroke-linejoin:round;stroke-miterlimit:10;stroke-opacity:0.69803922;paint-order:fill stroke markers"
       inkscape:connector-curvature="0"
       id="path19"
       stroke-miterlimit="10"
       d="M 442.21368,721.37041 596.24392,567.34017" />
    <path
       style="fill:#000000;fill-opacity:1;stroke:none;paint-order:stroke fill markers"
       inkscape:connector-curvature="0"
       id="path21"
       d="m 249.21998,721.37041 c 0,2.76142 -2.23858,5 -5,5 -2.76142,0 -5,-2.23858 -5,-5 0,-2.76143 2.23858,-5 5,-5 2.76142,0 5,2.23857 5,5 z" />
    <path
       style="fill:none;stroke:#000000;stroke-linecap:round;stroke-linejoin:round;stroke-miterlimit:10;stroke-opacity:1;paint-order:fill stroke markers"
       inkscape:connector-curvature="0"
       id="path23"
       stroke-miterlimit="10"
       d="m 249.21998,721.37041 c 0,2.76142 -2.23858,5 -5,5 -2.76142,0 -5,-2.23858 -5,-5 0,-2.76143 2.23858,-5 5,-5 2.76142,0 5,2.23857 5,5 z" />
    <text
       style="font-style:normal;font-weight:normal;font-size:16px;font-family:geogebra-sans-serif, sans-serif;dominant-baseline:alphabetic;text-anchor:start;fill:#000000;fill-opacity:1;stroke:none"
       id="text25"
       dominant-baseline="alphabetic"
       y="710.93494"
       x="247.93491"
       text-decoration="normal"
       font-weight="normal"
       font-style="normal"
       font-size="16px">A</text>
    <text
       style="font-style:normal;font-weight:normal;font-size:16px;font-family:geogebra-sans-serif, sans-serif;dominant-baseline:alphabetic;text-anchor:start;fill:none;stroke:#ffffff;stroke-width:3;stroke-linejoin:bevel;stroke-miterlimit:10;stroke-opacity:1"
       id="text27"
       stroke-miterlimit="10"
       dominant-baseline="alphabetic"
       y="710.93494"
       x="247.93491"
       text-decoration="normal"
       font-weight="normal"
       font-style="normal"
       font-size="16px">A</text>
    <text
       style="font-style:normal;font-weight:normal;font-size:16px;font-family:geogebra-sans-serif, sans-serif;dominant-baseline:alphabetic;text-anchor:start;fill:#000000;fill-opacity:1;stroke:none"
       id="text29"
       dominant-baseline="alphabetic"
       y="710.93494"
       x="247.93491"
       text-decoration="normal"
       font-weight="normal"
       font-style="normal"
       font-size="16px">A</text>
    <path
       style="fill:#000000;fill-opacity:1;stroke:none;paint-order:stroke fill markers"
       inkscape:connector-curvature="0"
       id="path31"
       d="m 755.27416,721.37041 c 0,2.76142 -2.23858,5 -5,5 -2.76143,0 -5,-2.23858 -5,-5 0,-2.76143 2.23857,-5 5,-5 2.76142,0 5,2.23857 5,5 z" />
    <path
       style="fill:none;stroke:#000000;stroke-linecap:round;stroke-linejoin:round;stroke-miterlimit:10;stroke-opacity:1;paint-order:fill stroke markers"
       inkscape:connector-curvature="0"
       id="path33"
       stroke-miterlimit="10"
       d="m 755.27416,721.37041 c 0,2.76142 -2.23858,5 -5,5 -2.76143,0 -5,-2.23858 -5,-5 0,-2.76143 2.23857,-5 5,-5 2.76142,0 5,2.23857 5,5 z" />
    <text
       style="font-style:normal;font-weight:normal;font-size:16px;font-family:geogebra-sans-serif, sans-serif;dominant-baseline:alphabetic;text-anchor:start;fill:#000000;fill-opacity:1;stroke:none"
       id="text35"
       dominant-baseline="alphabetic"
       y="710.93494"
       x="753.93494"
       text-decoration="normal"
       font-weight="normal"
       font-style="normal"
       font-size="16px">B</text>
    <text
       style="font-style:normal;font-weight:normal;font-size:16px;font-family:geogebra-sans-serif, sans-serif;dominant-baseline:alphabetic;text-anchor:start;fill:none;stroke:#ffffff;stroke-width:3;stroke-linejoin:bevel;stroke-miterlimit:10;stroke-opacity:1"
       id="text37"
       stroke-miterlimit="10"
       dominant-baseline="alphabetic"
       y="710.93494"
       x="753.93494"
       text-decoration="normal"
       font-weight="normal"
       font-style="normal"
       font-size="16px">B</text>
    <text
       style="font-style:normal;font-weight:normal;font-size:16px;font-family:geogebra-sans-serif, sans-serif;dominant-baseline:alphabetic;text-anchor:start;fill:#000000;fill-opacity:1;stroke:none"
       id="text39"
       dominant-baseline="alphabetic"
       y="710.93494"
       x="753.93494"
       text-decoration="normal"
       font-weight="normal"
       font-style="normal"
       font-size="16px">B</text>
    <path
       style="fill:#000000;fill-opacity:1;stroke:none;paint-order:stroke fill markers"
       inkscape:connector-curvature="0"
       id="path41"
       d="m 755.27416,215.31623 c 0,2.76142 -2.23858,5 -5,5 -2.76143,0 -5,-2.23858 -5,-5 0,-2.76143 2.23857,-5 5,-5 2.76142,0 5,2.23857 5,5 z" />
    <path
       style="fill:none;stroke:#000000;stroke-linecap:round;stroke-linejoin:round;stroke-miterlimit:10;stroke-opacity:1;paint-order:fill stroke markers"
       inkscape:connector-curvature="0"
       id="path43"
       stroke-miterlimit="10"
       d="m 755.27416,215.31623 c 0,2.76142 -2.23858,5 -5,5 -2.76143,0 -5,-2.23858 -5,-5 0,-2.76143 2.23857,-5 5,-5 2.76142,0 5,2.23857 5,5 z" />
    <path
       style="fill:#000000;fill-opacity:1;stroke:none;paint-order:stroke fill markers"
       inkscape:connector-curvature="0"
       id="path45"
       d="m 249.21998,215.31623 c 0,2.76142 -2.23858,5 -5,5 -2.76142,0 -5,-2.23858 -5,-5 0,-2.76143 2.23858,-5 5,-5 2.76142,0 5,2.23857 5,5 z" />
    <path
       style="fill:none;stroke:#000000;stroke-linecap:round;stroke-linejoin:round;stroke-miterlimit:10;stroke-opacity:1;paint-order:fill stroke markers"
       inkscape:connector-curvature="0"
       id="path47"
       stroke-miterlimit="10"
       d="m 249.21998,215.31623 c 0,2.76142 -2.23858,5 -5,5 -2.76142,0 -5,-2.23858 -5,-5 0,-2.76143 2.23858,-5 5,-5 2.76142,0 5,2.23857 5,5 z" />
    <text
       style="font-style:normal;font-weight:normal;font-size:16px;font-family:geogebra-sans-serif, sans-serif;dominant-baseline:alphabetic;text-anchor:start;fill:#000000;fill-opacity:1;stroke:none"
       id="text49"
       dominant-baseline="alphabetic"
       y="204.93491"
       x="247.93491"
       text-decoration="normal"
       font-weight="normal"
       font-style="normal"
       font-size="16px">D</text>
    <text
       style="font-style:normal;font-weight:normal;font-size:16px;font-family:geogebra-sans-serif, sans-serif;dominant-baseline:alphabetic;text-anchor:start;fill:none;stroke:#ffffff;stroke-width:3;stroke-linejoin:bevel;stroke-miterlimit:10;stroke-opacity:1"
       id="text51"
       stroke-miterlimit="10"
       dominant-baseline="alphabetic"
       y="204.93491"
       x="247.93491"
       text-decoration="normal"
       font-weight="normal"
       font-style="normal"
       font-size="16px">D</text>
    <text
       style="font-style:normal;font-weight:normal;font-size:16px;font-family:geogebra-sans-serif, sans-serif;dominant-baseline:alphabetic;text-anchor:start;fill:#000000;fill-opacity:1;stroke:none"
       id="text53"
       dominant-baseline="alphabetic"
       y="204.93491"
       x="247.93491"
       text-decoration="normal"
       font-weight="normal"
       font-style="normal"
       font-size="16px">D</text>
    <path
       style="fill:#000000;fill-opacity:1;stroke:none;paint-order:stroke fill markers"
       inkscape:connector-curvature="0"
       id="path55"
       d="m 601.24392,567.34017 c 0,2.76142 -2.23858,5 -5,5 -2.76143,0 -5,-2.23858 -5,-5 0,-2.76143 2.23857,-5 5,-5 2.76142,0 5,2.23857 5,5 z" />
    <path
       style="fill:none;stroke:#000000;stroke-linecap:round;stroke-linejoin:round;stroke-miterlimit:10;stroke-opacity:1;paint-order:fill stroke markers"
       inkscape:connector-curvature="0"
       id="path57"
       stroke-miterlimit="10"
       d="m 601.24392,567.34017 c 0,2.76142 -2.23858,5 -5,5 -2.76143,0 -5,-2.23858 -5,-5 0,-2.76143 2.23857,-5 5,-5 2.76142,0 5,2.23857 5,5 z" />
    <text
       style="font-style:normal;font-weight:normal;font-size:16px;font-family:geogebra-sans-serif, sans-serif;dominant-baseline:alphabetic;text-anchor:start;fill:#000000;fill-opacity:1;stroke:none"
       id="text59"
       dominant-baseline="alphabetic"
       y="556.93494"
       x="599.93494"
       text-decoration="normal"
       font-weight="normal"
       font-style="normal"
       font-size="16px">E</text>
    <text
       style="font-style:normal;font-weight:normal;font-size:16px;font-family:geogebra-sans-serif, sans-serif;dominant-baseline:alphabetic;text-anchor:start;fill:none;stroke:#ffffff;stroke-width:3;stroke-linejoin:bevel;stroke-miterlimit:10;stroke-opacity:1"
       id="text61"
       stroke-miterlimit="10"
       dominant-baseline="alphabetic"
       y="556.93494"
       x="599.93494"
       text-decoration="normal"
       font-weight="normal"
       font-style="normal"
       font-size="16px">E</text>
    <text
       style="font-style:normal;font-weight:normal;font-size:16px;font-family:geogebra-sans-serif, sans-serif;dominant-baseline:alphabetic;text-anchor:start;fill:#000000;fill-opacity:1;stroke:none"
       id="text63"
       dominant-baseline="alphabetic"
       y="556.93494"
       x="599.93494"
       text-decoration="normal"
       font-weight="normal"
       font-style="normal"
       font-size="16px">E</text>
    <path
       style="fill:#000000;fill-opacity:1;stroke:none;paint-order:stroke fill markers"
       inkscape:connector-curvature="0"
       id="path65"
       d="m 447.21368,721.37041 c 0,2.76142 -2.23858,5 -5,5 -2.76143,0 -5,-2.23858 -5,-5 0,-2.76143 2.23857,-5 5,-5 2.76142,0 5,2.23857 5,5 z" />
    <path
       style="fill:none;stroke:#000000;stroke-linecap:round;stroke-linejoin:round;stroke-miterlimit:10;stroke-opacity:1;paint-order:fill stroke markers"
       inkscape:connector-curvature="0"
       id="path67"
       stroke-miterlimit="10"
       d="m 447.21368,721.37041 c 0,2.76142 -2.23858,5 -5,5 -2.76143,0 -5,-2.23858 -5,-5 0,-2.76143 2.23857,-5 5,-5 2.76142,0 5,2.23857 5,5 z" />
    <text
       style="font-style:normal;font-weight:normal;font-size:16px;font-family:geogebra-sans-serif, sans-serif;dominant-baseline:alphabetic;text-anchor:start;fill:#000000;fill-opacity:1;stroke:none"
       id="text69"
       dominant-baseline="alphabetic"
       y="710.93494"
       x="445.93491"
       text-decoration="normal"
       font-weight="normal"
       font-style="normal"
       font-size="16px">F</text>
    <text
       style="font-style:normal;font-weight:normal;font-size:16px;font-family:geogebra-sans-serif, sans-serif;dominant-baseline:alphabetic;text-anchor:start;fill:none;stroke:#ffffff;stroke-width:3;stroke-linejoin:bevel;stroke-miterlimit:10;stroke-opacity:1"
       id="text71"
       stroke-miterlimit="10"
       dominant-baseline="alphabetic"
       y="710.93494"
       x="445.93491"
       text-decoration="normal"
       font-weight="normal"
       font-style="normal"
       font-size="16px">F</text>
    <text
       style="font-style:normal;font-weight:normal;font-size:16px;font-family:geogebra-sans-serif, sans-serif;dominant-baseline:alphabetic;text-anchor:start;fill:#000000;fill-opacity:1;stroke:none"
       id="text73"
       dominant-baseline="alphabetic"
       y="710.93494"
       x="445.93491"
       text-decoration="normal"
       font-weight="normal"
       font-style="normal"
       font-size="16px">F</text>
    <path
       style="fill:#000000;fill-opacity:1;stroke:none;paint-order:stroke fill markers"
       inkscape:connector-curvature="0"
       id="path75"
       d="m 657.85873,721.37041 c 0,2.76142 -2.23858,5 -5,5 -2.76143,0 -5,-2.23858 -5,-5 0,-2.76143 2.23857,-5 5,-5 2.76142,0 5,2.23857 5,5 z" />
    <path
       style="fill:none;stroke:#000000;stroke-linecap:round;stroke-linejoin:round;stroke-miterlimit:10;stroke-opacity:1;paint-order:fill stroke markers"
       inkscape:connector-curvature="0"
       id="path77"
       stroke-miterlimit="10"
       d="m 657.85873,721.37041 c 0,2.76142 -2.23858,5 -5,5 -2.76143,0 -5,-2.23858 -5,-5 0,-2.76143 2.23857,-5 5,-5 2.76142,0 5,2.23857 5,5 z" />
    <text
       style="font-style:normal;font-weight:normal;font-size:16px;font-family:geogebra-sans-serif, sans-serif;dominant-baseline:alphabetic;text-anchor:start;fill:#000000;fill-opacity:1;stroke:none"
       id="text79"
       dominant-baseline="alphabetic"
       y="710.93494"
       x="656.93494"
       text-decoration="normal"
       font-weight="normal"
       font-style="normal"
       font-size="16px">G</text>
    <text
       style="font-style:normal;font-weight:normal;font-size:16px;font-family:geogebra-sans-serif, sans-serif;dominant-baseline:alphabetic;text-anchor:start;fill:none;stroke:#ffffff;stroke-width:3;stroke-linejoin:bevel;stroke-miterlimit:10;stroke-opacity:1"
       id="text81"
       stroke-miterlimit="10"
       dominant-baseline="alphabetic"
       y="710.93494"
       x="656.93494"
       text-decoration="normal"
       font-weight="normal"
       font-style="normal"
       font-size="16px">G</text>
    <text
       style="font-style:normal;font-weight:normal;font-size:16px;font-family:geogebra-sans-serif, sans-serif;dominant-baseline:alphabetic;text-anchor:start;fill:#000000;fill-opacity:1;stroke:none"
       id="text83"
       dominant-baseline="alphabetic"
       y="710.93494"
       x="656.93494"
       text-decoration="normal"
       font-weight="normal"
       font-style="normal"
       font-size="16px">G</text>
  </g>
</svg>
