<svg version="1.1" xmlns="http://www.w3.org/2000/svg" xmlns:xlink="http://www.w3.org/1999/xlink" width="1260" height="805"><defs><clipPath id="RUBoQSahCMic"><path fill="none" stroke="none" d=" M 0 0 L 1260 0 L 1260 805 L 0 805 L 0 0 Z"/></clipPath></defs><g transform="scale(1,1)" clip-path="url(#RUBoQSahCMic)"><g><rect fill="rgb(255,255,255)" stroke="none" x="0" y="0" width="1260" height="805" fill-opacity="1"/><path fill="none" stroke="rgb(46,125,50)" paint-order="fill stroke markers" d=" M 836.8979700049363 459.21955251586365 C 836.8979700049363 621.7565334047888 705.1357131569468 753.5187902527784 542.5987322680219 753.5187902527784 C 380.0617513790969 753.5187902527784 248.29949453110743 621.7565334047888 248.29949453110743 459.21955251586365 C 248.29949453110743 296.68257162693845 380.0617513790969 164.9203147789488 542.5987322680219 164.9203147789488 C 705.1357131569468 164.9203147789488 836.8979700049363 296.68257162693845 836.8979700049363 459.21955251586365 Z" stroke-opacity="0.8" stroke-linecap="round" stroke-linejoin="round" stroke-miterlimit="10" stroke-width="2.5"/><path fill="none" stroke="rgb(0,0,0)" paint-order="fill stroke markers" d=" M -5 20.07507979987472 L 1265 335.2927793045237" stroke-opacity="0.6980392156862745" stroke-linecap="round" stroke-linejoin="round" stroke-miterlimit="10" stroke-width="2.5"/><path fill="none" stroke="rgb(0,0,0)" paint-order="fill stroke markers" d=" M 260.1819791191668 542.001306987411 L 613.4935675858632 173.58698494384248" stroke-opacity="0.6980392156862745" stroke-linecap="round" stroke-linejoin="round" stroke-miterlimit="10" stroke-width="2.5"/><path fill="none" stroke="rgb(0,0,0)" paint-order="fill stroke markers" d=" M 613.4935675858632 173.58698494384248 L 542.5987322680219 459.21955251586365" stroke-opacity="0.6980392156862745" stroke-linecap="round" stroke-linejoin="round" stroke-miterlimit="10" stroke-width="2.5"/><path fill="none" stroke="rgb(0,0,0)" paint-order="fill stroke markers" d=" M 753.529614062221 664.451627099859 L 613.4935675858633 173.58698494384254" stroke-opacity="0.6980392156862745" stroke-linecap="round" stroke-linejoin="round" stroke-miterlimit="10" stroke-width="2.5"/><path fill="none" stroke="rgb(0,0,0)" paint-order="fill stroke markers" d=" M 260.1819791191668 542.001306987411 L 542.5987322680219 459.21955251586365" stroke-opacity="0.6980392156862745" stroke-linecap="round" stroke-linejoin="round" stroke-miterlimit="10" stroke-width="2.5"/><path fill="none" stroke="rgb(0,0,0)" paint-order="fill stroke markers" d=" M 753.529614062221 664.451627099859 L 542.5987322680219 459.21955251586365" stroke-opacity="0.6980392156862745" stroke-linecap="round" stroke-linejoin="round" stroke-miterlimit="10" stroke-width="2.5"/><path fill="rgb(21,101,192)" stroke="none" paint-order="stroke fill markers" d=" M 265.1819791191668 542.001306987411 C 265.1819791191668 544.762730736565 262.94340286832073 547.001306987411 260.1819791191668 547.001306987411 C 257.42055537001283 547.001306987411 255.18197911916678 544.762730736565 255.18197911916678 542.001306987411 C 255.18197911916678 539.239883238257 257.42055537001283 537.001306987411 260.1819791191668 537.001306987411 C 262.94340286832073 537.001306987411 265.1819791191668 539.239883238257 265.1819791191668 542.001306987411 Z" fill-opacity="1"/><path fill="none" stroke="rgb(0,0,0)" paint-order="fill stroke markers" d=" M 265.1819791191668 542.001306987411 C 265.1819791191668 544.762730736565 262.94340286832073 547.001306987411 260.1819791191668 547.001306987411 C 257.42055537001283 547.001306987411 255.18197911916678 544.762730736565 255.18197911916678 542.001306987411 C 255.18197911916678 539.239883238257 257.42055537001283 537.001306987411 260.1819791191668 537.001306987411 C 262.94340286832073 537.001306987411 265.1819791191668 539.239883238257 265.1819791191668 542.001306987411 Z" stroke-opacity="1" stroke-linecap="round" stroke-linejoin="round" stroke-miterlimit="10"/><text fill="none" stroke="rgb(255,255,255)" font-family="geogebra-sans-serif, sans-serif" font-size="32px" font-style="normal" font-weight="normal" text-decoration="normal" x="264" y="532" text-anchor="start" dominant-baseline="alphabetic" stroke-opacity="1" stroke-linecap="round" stroke-linejoin="bevel" stroke-miterlimit="10" stroke-width="3">A</text><text fill="rgb(21,101,192)" stroke="none" font-family="geogebra-sans-serif, sans-serif" font-size="32px" font-style="normal" font-weight="normal" text-decoration="normal" x="264" y="532" text-anchor="start" dominant-baseline="alphabetic" fill-opacity="1">A</text><path fill="rgb(21,101,192)" stroke="none" paint-order="stroke fill markers" d=" M 618.4935675858632 173.58698494384248 C 618.4935675858632 176.34840869299646 616.2549913350172 178.58698494384248 613.4935675858632 178.58698494384248 C 610.7321438367092 178.58698494384248 608.4935675858632 176.34840869299646 608.4935675858632 173.58698494384248 C 608.4935675858632 170.8255611946885 610.7321438367092 168.58698494384248 613.4935675858632 168.58698494384248 C 616.2549913350172 168.58698494384248 618.4935675858632 170.8255611946885 618.4935675858632 173.58698494384248 Z" fill-opacity="1"/><path fill="none" stroke="rgb(0,0,0)" paint-order="fill stroke markers" d=" M 618.4935675858632 173.58698494384248 C 618.4935675858632 176.34840869299646 616.2549913350172 178.58698494384248 613.4935675858632 178.58698494384248 C 610.7321438367092 178.58698494384248 608.4935675858632 176.34840869299646 608.4935675858632 173.58698494384248 C 608.4935675858632 170.8255611946885 610.7321438367092 168.58698494384248 613.4935675858632 168.58698494384248 C 616.2549913350172 168.58698494384248 618.4935675858632 170.8255611946885 618.4935675858632 173.58698494384248 Z" stroke-opacity="1" stroke-linecap="round" stroke-linejoin="round" stroke-miterlimit="10"/><text fill="none" stroke="rgb(255,255,255)" font-family="geogebra-sans-serif, sans-serif" font-size="32px" font-style="normal" font-weight="normal" text-decoration="normal" x="617" y="164" text-anchor="start" dominant-baseline="alphabetic" stroke-opacity="1" stroke-linecap="round" stroke-linejoin="bevel" stroke-miterlimit="10" stroke-width="3">B</text><text fill="rgb(21,101,192)" stroke="none" font-family="geogebra-sans-serif, sans-serif" font-size="32px" font-style="normal" font-weight="normal" text-decoration="normal" x="617" y="164" text-anchor="start" dominant-baseline="alphabetic" fill-opacity="1">B</text><path fill="rgb(97,97,97)" stroke="none" paint-order="stroke fill markers" d=" M 547.5987322680219 459.21955251586365 C 547.5987322680219 461.9809762650176 545.3601560171759 464.21955251586365 542.5987322680219 464.21955251586365 C 539.8373085188679 464.21955251586365 537.5987322680219 461.9809762650176 537.5987322680219 459.21955251586365 C 537.5987322680219 456.4581287667097 539.8373085188679 454.21955251586365 542.5987322680219 454.21955251586365 C 545.3601560171759 454.21955251586365 547.5987322680219 456.4581287667097 547.5987322680219 459.21955251586365 Z" fill-opacity="1"/><path fill="none" stroke="rgb(0,0,0)" paint-order="fill stroke markers" d=" M 547.5987322680219 459.21955251586365 C 547.5987322680219 461.9809762650176 545.3601560171759 464.21955251586365 542.5987322680219 464.21955251586365 C 539.8373085188679 464.21955251586365 537.5987322680219 461.9809762650176 537.5987322680219 459.21955251586365 C 537.5987322680219 456.4581287667097 539.8373085188679 454.21955251586365 542.5987322680219 454.21955251586365 C 545.3601560171759 454.21955251586365 547.5987322680219 456.4581287667097 547.5987322680219 459.21955251586365 Z" stroke-opacity="1" stroke-linecap="round" stroke-linejoin="round" stroke-miterlimit="10"/><text fill="none" stroke="rgb(255,255,255)" font-family="geogebra-sans-serif, sans-serif" font-size="32px" font-style="normal" font-weight="normal" text-decoration="normal" x="547" y="449" text-anchor="start" dominant-baseline="alphabetic" stroke-opacity="1" stroke-linecap="round" stroke-linejoin="bevel" stroke-miterlimit="10" stroke-width="3">C</text><text fill="rgb(97,97,97)" stroke="none" font-family="geogebra-sans-serif, sans-serif" font-size="32px" font-style="normal" font-weight="normal" text-decoration="normal" x="547" y="449" text-anchor="start" dominant-baseline="alphabetic" fill-opacity="1">C</text><path fill="rgb(21,101,192)" stroke="none" paint-order="stroke fill markers" d=" M 758.529614062221 664.451627099859 C 758.529614062221 667.213050849013 756.291037811375 669.451627099859 753.529614062221 669.451627099859 C 750.768190313067 669.451627099859 748.529614062221 667.213050849013 748.529614062221 664.451627099859 C 748.529614062221 661.690203350705 750.768190313067 659.451627099859 753.529614062221 659.451627099859 C 756.291037811375 659.451627099859 758.529614062221 661.690203350705 758.529614062221 664.451627099859 Z" fill-opacity="1"/><path fill="none" stroke="rgb(0,0,0)" paint-order="fill stroke markers" d=" M 758.529614062221 664.451627099859 C 758.529614062221 667.213050849013 756.291037811375 669.451627099859 753.529614062221 669.451627099859 C 750.768190313067 669.451627099859 748.529614062221 667.213050849013 748.529614062221 664.451627099859 C 748.529614062221 661.690203350705 750.768190313067 659.451627099859 753.529614062221 659.451627099859 C 756.291037811375 659.451627099859 758.529614062221 661.690203350705 758.529614062221 664.451627099859 Z" stroke-opacity="1" stroke-linecap="round" stroke-linejoin="round" stroke-miterlimit="10"/><text fill="none" stroke="rgb(255,255,255)" font-family="geogebra-sans-serif, sans-serif" font-size="32px" font-style="normal" font-weight="normal" text-decoration="normal" x="758" y="654" text-anchor="start" dominant-baseline="alphabetic" stroke-opacity="1" stroke-linecap="round" stroke-linejoin="bevel" stroke-miterlimit="10" stroke-width="3">A'</text><text fill="rgb(21,101,192)" stroke="none" font-family="geogebra-sans-serif, sans-serif" font-size="32px" font-style="normal" font-weight="normal" text-decoration="normal" x="758" y="654" text-anchor="start" dominant-baseline="alphabetic" fill-opacity="1">A'</text><path fill="rgb(21,101,192)" stroke="none" paint-order="stroke fill markers" d=" M 296.3389438301083 93.62726889260244 C 296.3389438301083 96.3886926417564 294.10036757926224 98.62726889260244 291.3389438301083 98.62726889260244 C 288.57752008095434 98.62726889260244 286.3389438301083 96.3886926417564 286.3389438301083 93.62726889260244 C 286.3389438301083 90.86584514344848 288.57752008095434 88.62726889260244 291.3389438301083 88.62726889260244 C 294.10036757926224 88.62726889260244 296.3389438301083 90.86584514344848 296.3389438301083 93.62726889260244 Z" fill-opacity="1"/><path fill="none" stroke="rgb(0,0,0)" paint-order="fill stroke markers" d=" M 296.3389438301083 93.62726889260244 C 296.3389438301083 96.3886926417564 294.10036757926224 98.62726889260244 291.3389438301083 98.62726889260244 C 288.57752008095434 98.62726889260244 286.3389438301083 96.3886926417564 286.3389438301083 93.62726889260244 C 286.3389438301083 90.86584514344848 288.57752008095434 88.62726889260244 291.3389438301083 88.62726889260244 C 294.10036757926224 88.62726889260244 296.3389438301083 90.86584514344848 296.3389438301083 93.62726889260244 Z" stroke-opacity="1" stroke-linecap="round" stroke-linejoin="round" stroke-miterlimit="10"/><text fill="none" stroke="rgb(255,255,255)" font-family="geogebra-sans-serif, sans-serif" font-size="32px" font-style="normal" font-weight="normal" text-decoration="normal" x="295" y="84" text-anchor="start" dominant-baseline="alphabetic" stroke-opacity="1" stroke-linecap="round" stroke-linejoin="bevel" stroke-miterlimit="10" stroke-width="3">D</text><text fill="rgb(21,101,192)" stroke="none" font-family="geogebra-sans-serif, sans-serif" font-size="32px" font-style="normal" font-weight="normal" text-decoration="normal" x="295" y="84" text-anchor="start" dominant-baseline="alphabetic" fill-opacity="1">D</text><path fill="rgb(21,101,192)" stroke="none" paint-order="stroke fill markers" d=" M 940.648191341618 253.54670099508252 C 940.648191341618 256.30812474423647 938.409615090772 258.5467009950825 935.648191341618 258.5467009950825 C 932.886767592464 258.5467009950825 930.648191341618 256.30812474423647 930.648191341618 253.54670099508252 C 930.648191341618 250.78527724592854 932.886767592464 248.54670099508252 935.648191341618 248.54670099508252 C 938.409615090772 248.54670099508252 940.648191341618 250.78527724592854 940.648191341618 253.54670099508252 Z" fill-opacity="1"/><path fill="none" stroke="rgb(0,0,0)" paint-order="fill stroke markers" d=" M 940.648191341618 253.54670099508252 C 940.648191341618 256.30812474423647 938.409615090772 258.5467009950825 935.648191341618 258.5467009950825 C 932.886767592464 258.5467009950825 930.648191341618 256.30812474423647 930.648191341618 253.54670099508252 C 930.648191341618 250.78527724592854 932.886767592464 248.54670099508252 935.648191341618 248.54670099508252 C 938.409615090772 248.54670099508252 940.648191341618 250.78527724592854 940.648191341618 253.54670099508252 Z" stroke-opacity="1" stroke-linecap="round" stroke-linejoin="round" stroke-miterlimit="10"/><text fill="none" stroke="rgb(255,255,255)" font-family="geogebra-sans-serif, sans-serif" font-size="32px" font-style="normal" font-weight="normal" text-decoration="normal" x="940" y="244" text-anchor="start" dominant-baseline="alphabetic" stroke-opacity="1" stroke-linecap="round" stroke-linejoin="bevel" stroke-miterlimit="10" stroke-width="3">D'</text><text fill="rgb(21,101,192)" stroke="none" font-family="geogebra-sans-serif, sans-serif" font-size="32px" font-style="normal" font-weight="normal" text-decoration="normal" x="940" y="244" text-anchor="start" dominant-baseline="alphabetic" fill-opacity="1">D'</text></g></g></svg>